# Blender 3.4.1
# www.blender.org
mtllib bed.mtl
o Cube.012
v -2.108656 0.009060 -3.703410
v -2.108656 0.409060 -3.703410
v -0.608656 0.009061 -3.703410
v -0.608656 0.409061 -3.703410
v -2.108656 0.009060 -1.603410
v -2.108656 0.409060 -1.603410
v -0.608656 0.009061 -1.603410
v -0.608656 0.409061 -1.603410
v -0.608656 0.009061 -1.612506
v -0.608656 0.409061 -1.612506
v -2.108656 0.009060 -1.612506
v -2.108656 0.409060 -1.612506
v -0.608656 0.009061 -3.655402
v -2.108656 0.409060 -3.655402
v -0.608656 0.409061 -3.655402
v -2.108656 0.009060 -3.655402
v -2.097483 0.009060 -3.703410
v -2.097483 0.409060 -3.703410
v -2.097483 0.009060 -1.603410
v -2.097483 0.409060 -1.603410
v -2.097483 0.409060 -1.612506
v -2.097483 0.009060 -1.612506
v -2.097483 0.009060 -3.655402
v -2.097483 0.409060 -3.655402
v -0.621094 0.409061 -3.703410
v -0.621094 0.009061 -1.603410
v -0.621094 0.009061 -3.703410
v -0.621094 0.409061 -1.603410
v -0.621094 0.409061 -1.612506
v -0.621094 0.009061 -1.612506
v -0.621094 0.009061 -3.655402
v -0.621094 0.409061 -3.655402
v -2.097483 0.349083 -1.612506
v -2.097483 0.349083 -3.655402
v -0.621094 0.349084 -1.612506
v -0.621094 0.349084 -3.655402
v -2.136770 0.009060 -3.703410
v -2.136770 0.409060 -3.703410
v -2.136770 0.409060 -3.655402
v -2.136770 0.009060 -3.655402
v -0.575804 0.009061 -3.703410
v -0.575804 0.409061 -3.703410
v -0.575804 0.009061 -3.655402
v -0.575804 0.409061 -3.655402
v -2.108656 0.909437 -3.703410
v -0.608657 0.909438 -3.703410
v -2.108656 0.909437 -3.655402
v -0.608657 0.909438 -3.655402
v -2.097484 0.909437 -3.703410
v -2.097484 0.909437 -3.655402
v -0.621095 0.909438 -3.703410
v -0.621095 0.909438 -3.655402
v -2.136770 0.909437 -3.703410
v -2.136770 0.909437 -3.655402
v -0.575805 0.909438 -3.703410
v -0.575805 0.909438 -3.655402
v -0.593132 0.009061 -1.603410
v -0.593132 0.409061 -1.603410
v -0.593132 0.009061 -1.612506
v -0.593132 0.409061 -1.612506
v -2.127627 0.009060 -1.603410
v -2.127627 0.409060 -1.603410
v -2.127627 0.009060 -1.612506
v -2.127627 0.409060 -1.612506
vn -0.0000 -0.0000 -1.0000
vn -0.0000 1.0000 -0.0000
vn -0.0000 -0.0000 1.0000
vn -0.0000 -1.0000 -0.0000
vn 1.0000 -0.0000 -0.0000
vn -1.0000 -0.0000 -0.0000
vt 0.125000 0.750000
vt 0.375000 0.000000
vt 0.625000 0.000000
vt 0.375000 0.250000
vt 0.125000 0.500000
vt 0.625000 0.250000
vt 0.375000 0.750000
vt 0.625000 0.750000
vt 0.375000 0.500000
vt 0.625000 0.500000
vt 0.375000 0.497938
vt 0.372938 0.500000
vt 0.627062 0.500000
vt 0.625000 0.497938
vt 0.372938 0.750000
vt 0.375000 0.752062
vt 0.627062 0.750000
vt 0.625000 0.752062
vt 0.130715 0.500000
vt 0.375000 0.255715
vt 0.869285 0.750000
vt 0.625000 0.994285
vt 0.625000 0.255715
vt 0.869285 0.500000
vt 0.375000 0.994285
vt 0.130715 0.750000
vt 0.125000 0.748138
vt 0.375000 0.001862
vt 0.625000 0.001862
vt 0.375000 0.748138
vt 0.625000 0.748138
vt 0.627062 0.748138
vt 0.372938 0.748138
vt 0.130715 0.748138
vt 0.869285 0.748138
vt 0.625000 0.247927
vt 0.375000 0.502073
vt 0.125000 0.502073
vt 0.375000 0.247927
vt 0.625000 0.502073
vt 0.627062 0.502073
vt 0.372938 0.502073
vt 0.130715 0.502073
vt 0.869285 0.502073
vt 0.627062 0.748138
vt 0.869285 0.748138
vt 0.627062 0.502073
vt 0.869285 0.502073
vt 0.375000 1.000000
vt 0.375000 0.000000
vt 0.125000 0.750000
vt 0.625000 0.000000
vt 0.625000 1.000000
vt 0.625000 0.994285
vt 0.375000 0.994285
vt 0.130715 0.750000
vt 0.125000 0.500000
vt 0.375000 0.250000
vt 0.625000 0.250000
vt 0.130715 0.500000
vt 0.375000 0.255715
vt 0.625000 0.255715
vt 0.875000 0.750000
vt 0.625000 0.000000
vt 0.875000 0.500000
vt 0.625000 0.250000
vt 0.625000 0.994285
vt 0.869285 0.750000
vt 0.625000 0.255715
vt 0.869285 0.500000
vt 0.875000 0.748138
vt 0.625000 0.001862
vt 0.869285 0.748138
vt 0.875000 0.502073
vt 0.625000 0.247927
vt 0.869285 0.502073
vt 0.625000 0.000000
vt 0.875000 0.750000
vt 0.625000 1.000000
vt 0.869285 0.750000
vt 0.625000 0.994285
vt 0.875000 0.500000
vt 0.625000 0.250000
vt 0.625000 0.255715
vt 0.869285 0.500000
vt 0.375000 0.500000
vt 0.625000 0.500000
vt 0.372938 0.500000
vt 0.375000 0.497938
vt 0.627062 0.500000
vt 0.625000 0.497938
vt 0.375000 0.750000
vt 0.625000 0.750000
vt 0.375000 0.752062
vt 0.372938 0.750000
vt 0.627062 0.750000
vt 0.625000 0.752062
s 0
f 25/36/1 3/4/1 27/39/1
f 8/10/2 60/90/2 10/13/2
f 20/31/3 5/7/3 19/30/3
f 38/52/1 45/64/1 2/3/1
f 19/30/4 11/15/4 22/33/4
f 44/62/3 48/69/3 15/23/3
f 21/32/2 6/8/2 20/31/2
f 22/33/4 16/26/4 23/34/4
f 12/17/2 62/93/2 6/8/2
f 15/23/5 9/11/5 13/20/5
f 3/5/4 43/60/4 13/19/4
f 23/34/4 1/1/4 17/27/4
f 21/32/2 14/21/2 12/17/2
f 12/18/6 16/25/6 11/16/6
f 21/32/5 34/46/5 24/35/5
f 31/43/4 17/27/4 27/38/4
f 31/43/4 22/33/4 23/34/4
f 29/41/2 20/31/2 28/40/2
f 15/24/3 52/76/3 32/44/3
f 26/37/4 22/33/4 30/42/4
f 26/37/3 20/31/3 19/30/3
f 2/3/1 17/28/1 1/2/1
f 8/10/3 26/37/3 7/9/3
f 7/9/4 30/42/4 9/12/4
f 18/29/1 51/75/1 25/36/1
f 10/13/2 28/40/2 8/10/2
f 9/12/4 31/43/4 13/19/4
f 13/19/4 27/38/4 3/5/4
f 15/24/2 29/41/2 10/13/2
f 18/29/1 27/39/1 17/28/1
f 35/47/2 34/46/2 33/45/2
f 32/44/6 35/47/6 29/41/6
f 29/41/1 33/45/1 21/32/1
f 32/44/3 34/46/3 36/48/3
f 39/54/6 37/49/6 40/55/6
f 14/22/3 40/55/3 16/25/3
f 2/3/1 37/50/1 38/52/1
f 16/26/4 37/51/4 1/1/4
f 42/59/5 43/61/5 41/58/5
f 13/20/3 44/62/3 15/23/3
f 42/59/5 56/84/5 44/62/5
f 4/6/1 41/58/1 3/4/1
f 45/63/2 54/80/2 47/68/2
f 49/71/2 47/68/2 50/73/2
f 51/74/2 50/73/2 52/76/2
f 46/65/2 52/76/2 48/70/2
f 48/70/2 55/82/2 46/65/2
f 39/54/6 53/79/6 38/53/6
f 32/44/3 50/73/3 24/35/3
f 4/6/1 55/83/1 42/59/1
f 14/22/3 54/81/3 39/54/3
f 2/3/1 49/72/1 18/29/1
f 25/36/1 46/66/1 4/6/1
f 24/35/3 47/68/3 14/21/3
f 60/91/5 57/86/5 59/89/5
f 9/12/4 57/86/4 7/9/4
f 10/14/1 59/89/1 9/11/1
f 7/9/3 58/87/3 8/10/3
f 62/93/6 63/94/6 61/92/6
f 6/8/3 61/92/3 5/7/3
f 11/16/1 64/97/1 12/18/1
f 5/7/4 63/95/4 11/15/4
f 25/36/1 4/6/1 3/4/1
f 8/10/2 58/87/2 60/90/2
f 20/31/3 6/8/3 5/7/3
f 38/52/1 53/77/1 45/64/1
f 19/30/4 5/7/4 11/15/4
f 44/62/3 56/84/3 48/69/3
f 21/32/2 12/17/2 6/8/2
f 22/33/4 11/15/4 16/26/4
f 12/17/2 64/96/2 62/93/2
f 15/23/5 10/14/5 9/11/5
f 3/5/4 41/57/4 43/60/4
f 23/34/4 16/26/4 1/1/4
f 21/32/2 24/35/2 14/21/2
f 12/18/6 14/22/6 16/25/6
f 21/32/5 33/45/5 34/46/5
f 31/43/4 23/34/4 17/27/4
f 31/43/4 30/42/4 22/33/4
f 29/41/2 21/32/2 20/31/2
f 15/24/3 48/70/3 52/76/3
f 26/37/4 19/30/4 22/33/4
f 26/37/3 28/40/3 20/31/3
f 2/3/1 18/29/1 17/28/1
f 8/10/3 28/40/3 26/37/3
f 7/9/4 26/37/4 30/42/4
f 18/29/1 49/72/1 51/75/1
f 10/13/2 29/41/2 28/40/2
f 9/12/4 30/42/4 31/43/4
f 13/19/4 31/43/4 27/38/4
f 15/24/2 32/44/2 29/41/2
f 18/29/1 25/36/1 27/39/1
f 35/47/2 36/48/2 34/46/2
f 32/44/6 36/48/6 35/47/6
f 29/41/1 35/47/1 33/45/1
f 32/44/3 24/35/3 34/46/3
f 39/54/6 38/53/6 37/49/6
f 14/22/3 39/54/3 40/55/3
f 2/3/1 1/2/1 37/50/1
f 16/26/4 40/56/4 37/51/4
f 42/59/5 44/62/5 43/61/5
f 13/20/3 43/61/3 44/62/3
f 42/59/5 55/83/5 56/84/5
f 4/6/1 42/59/1 41/58/1
f 45/63/2 53/78/2 54/80/2
f 49/71/2 45/63/2 47/68/2
f 51/74/2 49/71/2 50/73/2
f 46/65/2 51/74/2 52/76/2
f 48/70/2 56/85/2 55/82/2
f 39/54/6 54/81/6 53/79/6
f 32/44/3 52/76/3 50/73/3
f 4/6/1 46/66/1 55/83/1
f 14/22/3 47/67/3 54/81/3
f 2/3/1 45/64/1 49/72/1
f 25/36/1 51/75/1 46/66/1
f 24/35/3 50/73/3 47/68/3
f 60/91/5 58/87/5 57/86/5
f 9/12/4 59/88/4 57/86/4
f 10/14/1 60/91/1 59/89/1
f 7/9/3 57/86/3 58/87/3
f 62/93/6 64/97/6 63/94/6
f 6/8/3 62/93/3 61/92/3
f 11/16/1 63/94/1 64/97/1
f 5/7/4 61/92/4 63/95/4
