# Blender 3.4.1
# www.blender.org
mtllib cozy1.mtl
o Cube.011
v -2.081127 0.010000 3.706450
v -2.081127 2.010000 3.706450
v -2.081127 0.010000 3.206450
v -2.081127 2.010000 3.206450
v -0.081127 0.010000 3.706450
v -0.081127 2.010000 3.706450
v -0.081127 0.010000 3.206450
v -0.081127 2.010000 3.206450
v -2.021127 0.070000 3.206450
v -2.021127 0.670000 3.206450
v -2.021127 0.715000 3.206450
v -2.021127 1.315000 3.206450
v -2.021127 1.360000 3.206450
v -1.421127 0.670000 3.206450
v -1.421127 0.715000 3.206450
v -1.421127 1.315000 3.206450
v -1.421127 1.360000 3.206450
v -2.021127 1.960000 3.206450
v -1.376127 0.715000 3.206450
v -1.376127 1.315000 3.206450
v -1.376127 1.360000 3.206450
v -1.376127 1.960000 3.206450
v -1.421127 1.960000 3.206450
v -0.131127 1.960000 3.206450
v -0.731127 1.360000 3.206450
v -0.731127 1.960000 3.206450
v -0.776127 1.360000 3.206450
v -0.776127 1.315000 3.206450
v -0.776127 1.960000 3.206450
v -1.421127 0.070000 3.206450
v -1.376127 0.670000 3.206450
v -1.376127 0.070000 3.206450
v -0.776127 0.070000 3.206450
v -0.731127 0.070000 3.206450
v -0.776127 0.670000 3.206450
v -0.776127 0.715000 3.206450
v -0.731127 0.715000 3.206450
v -0.731127 0.670000 3.206450
v -0.731127 1.315000 3.206450
v -0.131127 1.360000 3.206450
v -0.131127 1.315000 3.206450
v -0.131127 0.070000 3.206450
v -0.131127 0.670000 3.206450
v -0.131127 0.715000 3.206450
v -2.021127 1.960000 3.706450
v -1.421127 1.360000 3.706450
v -1.376127 1.315000 3.706450
v -1.376127 1.360000 3.706450
v -1.421127 1.960000 3.706450
v -0.776127 0.715000 3.706450
v -0.776127 1.315000 3.706450
v -0.776127 1.360000 3.706450
v -0.776127 1.960000 3.706450
v -1.376127 1.960000 3.706450
v -0.731127 0.715000 3.706450
v -0.731127 0.670000 3.706450
v -0.731127 1.360000 3.706450
v -0.731127 1.315000 3.706450
v -0.131127 0.070000 3.706450
v -0.131127 1.360000 3.706450
v -0.131127 1.315000 3.706450
v -0.131127 1.960000 3.706450
v -0.131127 0.670000 3.706450
v -0.131127 0.715000 3.706450
v -0.731127 1.960000 3.706450
v -2.021127 0.070000 3.706450
v -2.021127 0.670000 3.706450
v -2.021127 0.715000 3.706450
v -2.021127 1.315000 3.706450
v -2.021127 1.360000 3.706450
v -1.421127 0.670000 3.706450
v -1.421127 0.715000 3.706450
v -1.421127 0.070000 3.706450
v -1.376127 0.715000 3.706450
v -1.376127 0.070000 3.706450
v -1.376127 0.670000 3.706450
v -1.421127 1.315000 3.706450
v -0.776127 0.670000 3.706450
v -0.731127 0.070000 3.706450
v -0.776127 0.070000 3.706450
vn -1.0000 -0.0000 -0.0000
vn -0.0000 -0.0000 -1.0000
vn 1.0000 -0.0000 -0.0000
vn -0.0000 -0.0000 1.0000
vn -0.0000 -1.0000 -0.0000
vn -0.0000 1.0000 -0.0000
vn 0.5145 -0.0000 -0.8575
vn 0.0001 -0.0000 -1.0000
vn -0.0000 -0.0000 -0.0000
vn -0.0000 -0.0001 1.0000
vn -0.1425 -0.0000 -0.9898
vn -0.5145 -0.0000 0.8575
vn -0.0000 -0.0002 1.0000
vt 0.375000 0.000000
vt 0.375000 1.000000
vt 0.125000 0.750000
vt 0.625000 0.000000
vt 0.625000 1.000000
vt 0.875000 0.750000
vt 0.125000 0.500000
vt 0.375000 0.250000
vt 0.625000 0.250000
vt 0.875000 0.500000
vt 0.375000 0.750000
vt 0.625000 0.750000
vt 0.375000 0.500000
vt 0.625000 0.500000
vt 0.382500 0.257500
vt 0.375000 0.156250
vt 0.125000 0.593750
vt 0.875000 0.593750
vt 0.457500 0.257500
vt 0.625000 0.156250
vt 0.463125 0.257500
vt 0.375000 0.156250
vt 0.125000 0.593750
vt 0.875000 0.593750
vt 0.538125 0.257500
vt 0.625000 0.156250
vt 0.543750 0.257500
vt 0.375000 0.156250
vt 0.125000 0.593750
vt 0.457500 0.332500
vt 0.625000 0.593750
vt 0.463125 0.332500
vt 0.375000 0.593750
vt 0.538125 0.332500
vt 0.625000 0.593750
vt 0.543750 0.332500
vt 0.375000 0.593750
vt 0.875000 0.593750
vt 0.618750 0.257500
vt 0.625000 0.156250
vt 0.463125 0.338125
vt 0.375000 0.156250
vt 0.125000 0.593750
vt 0.875000 0.593750
vt 0.538125 0.338125
vt 0.625000 0.156250
vt 0.543750 0.338125
vt 0.375000 0.156250
vt 0.125000 0.593750
vt 0.875000 0.593750
vt 0.618750 0.338125
vt 0.625000 0.156250
vt 0.618750 0.332500
vt 0.625000 0.593750
vt 0.618750 0.493750
vt 0.625000 0.593750
vt 0.543750 0.418750
vt 0.375000 0.156250
vt 0.125000 0.593750
vt 0.875000 0.593750
vt 0.618750 0.418750
vt 0.625000 0.156250
vt 0.543750 0.413125
vt 0.375000 0.593750
vt 0.538125 0.413125
vt 0.625000 0.593750
vt 0.618750 0.413125
vt 0.625000 0.593750
vt 0.382500 0.332500
vt 0.375000 0.593750
vt 0.875000 0.593750
vt 0.457500 0.338125
vt 0.625000 0.156250
vt 0.382500 0.338125
vt 0.375000 0.156250
vt 0.125000 0.593750
vt 0.382500 0.413125
vt 0.375000 0.593750
vt 0.382500 0.418750
vt 0.375000 0.156250
vt 0.125000 0.593750
vt 0.457500 0.413125
vt 0.625000 0.593750
vt 0.463125 0.413125
vt 0.375000 0.593750
vt 0.463125 0.418750
vt 0.375000 0.156250
vt 0.125000 0.593750
vt 0.875000 0.593750
vt 0.457500 0.418750
vt 0.625000 0.156250
vt 0.875000 0.593750
vt 0.538125 0.418750
vt 0.625000 0.156250
vt 0.543750 0.493750
vt 0.375000 0.593750
vt 0.538125 0.493750
vt 0.625000 0.593750
vt 0.382500 0.493750
vt 0.375000 0.593750
vt 0.457500 0.493750
vt 0.625000 0.593750
vt 0.463125 0.493750
vt 0.375000 0.593750
vt 0.618750 0.992500
vt 0.625000 0.093750
vt 0.875000 0.656250
vt 0.543750 0.917500
vt 0.375000 0.656250
vt 0.538125 0.911875
vt 0.625000 0.093750
vt 0.875000 0.656250
vt 0.375000 0.093750
vt 0.543750 0.911875
vt 0.125000 0.656250
vt 0.618750 0.917500
vt 0.625000 0.656250
vt 0.463125 0.836875
vt 0.375000 0.656250
vt 0.538125 0.836875
vt 0.625000 0.656250
vt 0.543750 0.836875
vt 0.375000 0.656250
vt 0.618750 0.836875
vt 0.625000 0.656250
vt 0.618750 0.911875
vt 0.625000 0.093750
vt 0.875000 0.656250
vt 0.375000 0.093750
vt 0.463125 0.831250
vt 0.125000 0.656250
vt 0.457500 0.831250
vt 0.625000 0.093750
vt 0.875000 0.656250
vt 0.375000 0.093750
vt 0.543750 0.831250
vt 0.125000 0.656250
vt 0.538125 0.831250
vt 0.625000 0.093750
vt 0.875000 0.656250
vt 0.382500 0.756250
vt 0.375000 0.656250
vt 0.543750 0.756250
vt 0.375000 0.656250
vt 0.538125 0.756250
vt 0.625000 0.656250
vt 0.618750 0.756250
vt 0.625000 0.656250
vt 0.457500 0.756250
vt 0.625000 0.656250
vt 0.463125 0.756250
vt 0.375000 0.656250
vt 0.618750 0.831250
vt 0.625000 0.093750
vt 0.875000 0.656250
vt 0.375000 0.093750
vt 0.382500 0.992500
vt 0.125000 0.656250
vt 0.457500 0.992500
vt 0.625000 0.093750
vt 0.875000 0.656250
vt 0.375000 0.093750
vt 0.463125 0.992500
vt 0.125000 0.656250
vt 0.538125 0.992500
vt 0.625000 0.093750
vt 0.875000 0.656250
vt 0.375000 0.093750
vt 0.543750 0.992500
vt 0.125000 0.656250
vt 0.457500 0.917500
vt 0.625000 0.656250
vt 0.463125 0.917500
vt 0.375000 0.656250
vt 0.382500 0.917500
vt 0.375000 0.656250
vt 0.375000 0.093750
vt 0.463125 0.911875
vt 0.125000 0.656250
vt 0.375000 0.093750
vt 0.382500 0.911875
vt 0.125000 0.656250
vt 0.457500 0.911875
vt 0.625000 0.093750
vt 0.875000 0.656250
vt 0.538125 0.917500
vt 0.625000 0.656250
vt 0.457500 0.836875
vt 0.625000 0.656250
vt 0.375000 0.093750
vt 0.382500 0.831250
vt 0.125000 0.656250
vt 0.382500 0.836875
vt 0.375000 0.656250
s 0
f 2/4/1 3/8/1 1/1/1
f 7/13/2 32/74/2 33/77/2
f 15/32/2 19/41/2 38/90/2
f 8/14/3 5/11/3 7/13/3
f 49/116/4 48/114/4 54/126/4
f 61/145/4 5/11/4 60/143/4
f 72/173/4 67/159/4 78/188/4
f 69/165/4 77/186/4 70/169/4
f 7/13/5 1/3/5 3/7/5
f 4/10/6 6/12/6 8/14/6
f 25/58/3 65/154/3 57/135/3
f 24/56/1 60/144/1 62/148/1
f 40/96/6 57/137/6 60/144/6
f 24/56/5 65/155/5 26/60/5
f 21/48/3 54/127/3 48/113/3
f 29/68/1 52/123/1 53/125/1
f 27/64/6 48/115/6 52/123/6
f 29/68/5 54/128/5 22/50/5
f 13/28/3 45/106/3 70/168/3
f 23/54/1 46/109/1 49/117/1
f 17/37/6 70/170/6 46/109/6
f 23/54/5 45/107/5 18/38/5
f 37/87/3 58/139/3 55/129/3
f 41/98/1 64/152/1 61/146/1
f 44/104/6 55/131/6 64/152/6
f 41/98/5 58/140/5 39/92/5
f 19/42/3 47/111/3 74/177/3
f 28/66/1 50/119/1 51/121/1
f 36/85/6 74/179/6 50/119/6
f 28/66/5 47/112/5 20/44/5
f 11/22/3 69/166/3 68/162/3
f 16/35/1 72/174/1 77/187/1
f 15/33/6 68/164/6 72/174/6
f 16/35/5 69/167/5 12/24/5
f 34/80/3 56/133/3 79/190/3
f 43/102/1 59/142/1 63/150/1
f 42/100/6 79/192/6 59/142/6
f 43/102/5 56/134/5 38/89/5
f 32/75/3 76/184/3 75/180/3
f 35/83/1 80/194/1 78/189/1
f 33/78/6 75/182/6 80/194/6
f 35/83/5 76/185/5 31/71/5
f 9/16/3 67/160/3 66/156/3
f 14/31/1 73/176/1 71/172/1
f 30/70/6 66/158/6 73/176/6
f 14/31/5 67/161/5 10/18/5
f 2/4/1 4/9/1 3/8/1
f 39/93/6 28/65/6 20/45/6
f 20/45/2 21/47/2 27/63/2
f 27/63/2 29/67/2 26/61/2
f 27/63/2 26/61/2 25/57/2
f 39/93/2 20/45/2 27/63/2
f 41/97/2 39/93/2 27/63/2
f 27/63/6 25/57/6 40/95/6
f 41/97/2 27/63/2 40/95/2
f 40/95/2 24/55/2 8/14/2
f 3/8/2 4/9/2 18/39/2
f 13/27/2 17/36/2 16/34/2
f 3/8/2 18/39/2 13/27/2
f 40/95/2 8/14/2 7/13/2
f 44/103/2 41/97/2 40/95/2
f 13/27/2 16/34/2 12/25/2
f 11/21/1 10/19/1 9/15/1
f 3/8/2 13/27/2 12/25/2
f 12/25/7 11/21/7 9/15/7
f 44/103/2 40/95/2 7/13/2
f 38/90/2 37/86/2 44/103/2
f 43/101/2 38/90/2 44/103/2
f 3/8/2 12/25/2 9/15/2
f 30/69/2 14/30/2 31/72/2
f 3/8/2 9/15/2 30/69/2
f 43/101/8 44/103/8 7/13/8
f 33/77/6 34/79/6 42/99/6
f 42/99/2 43/101/2 7/13/2
f 7/13/2 3/8/2 30/69/2
f 30/69/2 31/72/2 32/74/2
f 33/77/2 42/99/2 7/13/2
f 7/13/2 30/69/2 32/74/2
f 35/82/6 31/72/6 14/30/6
f 14/30/2 10/19/2 11/21/2
f 15/32/2 16/34/2 17/36/2
f 14/30/2 11/21/2 15/32/2
f 34/79/2 33/77/2 35/82/2
f 35/82/2 14/30/2 15/32/2
f 15/32/9 17/36/9 23/53/9
f 38/90/2 34/79/2 35/82/2
f 23/53/2 18/39/2 4/9/2
f 4/9/2 8/14/2 24/55/2
f 26/61/6 29/67/6 22/51/6
f 4/9/2 24/55/2 26/61/2
f 4/9/2 26/61/2 22/51/2
f 21/47/2 20/45/2 19/41/2
f 23/53/2 4/9/2 22/51/2
f 38/90/2 35/82/2 15/32/2
f 28/65/2 39/93/2 37/86/2
f 15/32/2 23/53/2 22/51/2
f 22/51/4 21/47/4 19/41/4
f 28/65/8 37/86/8 38/90/8
f 36/84/2 28/65/2 38/90/2
f 15/32/2 22/51/2 19/41/2
f 19/41/2 36/84/2 38/90/2
f 8/14/3 6/12/3 5/11/3
f 49/116/4 46/108/4 48/114/4
f 65/153/4 53/124/4 52/122/4
f 52/122/4 48/114/4 47/110/4
f 51/120/4 50/118/4 55/130/4
f 52/122/4 47/110/4 51/120/4
f 57/136/4 65/153/4 52/122/4
f 6/12/4 62/147/4 60/143/4
f 57/136/4 52/122/4 51/120/4
f 5/11/4 6/12/4 60/143/4
f 60/143/4 57/136/4 51/120/4
f 51/120/4 55/130/4 58/138/4
f 61/145/4 64/151/4 63/149/4
f 60/143/10 51/120/10 58/138/10
f 61/145/3 63/149/3 59/141/3
f 60/143/4 58/138/4 61/145/4
f 61/145/4 59/141/4 5/11/4
f 56/132/4 63/149/4 64/151/4
f 55/130/6 50/118/6 74/178/6
f 56/132/4 64/151/4 55/130/4
f 80/193/4 79/191/4 56/132/4
f 71/171/5 76/183/5 78/188/5
f 78/188/4 80/193/4 56/132/4
f 56/132/4 55/130/4 74/178/4
f 72/173/4 68/163/4 67/159/4
f 56/132/10 74/178/10 72/173/10
f 67/159/5 71/171/5 78/188/5
f 78/188/4 56/132/4 72/173/4
f 76/183/4 71/171/4 73/175/4
f 66/157/11 67/159/11 68/163/11
f 75/181/4 76/183/4 73/175/4
f 66/157/12 68/163/12 69/165/12
f 80/193/5 75/181/5 73/175/5
f 80/193/6 73/175/6 66/157/6
f 5/11/4 59/141/4 79/191/4
f 79/191/5 80/193/5 66/157/5
f 1/2/4 5/11/4 79/191/4
f 62/147/4 6/12/4 2/5/4
f 54/126/5 53/124/5 65/153/5
f 65/153/4 62/147/4 2/5/4
f 1/2/4 79/191/4 66/157/4
f 1/2/4 66/157/4 69/165/4
f 54/126/4 65/153/4 2/5/4
f 45/105/5 49/116/5 54/126/5
f 2/5/4 1/2/4 69/165/4
f 77/186/4 72/173/4 74/178/4
f 45/105/4 54/126/4 2/5/4
f 48/114/6 46/108/6 70/169/6
f 70/169/4 45/105/4 2/5/4
f 77/186/4 74/178/4 47/110/4
f 47/110/4 48/114/4 70/169/4
f 70/169/4 2/5/4 69/165/4
f 77/186/13 47/110/13 70/169/13
f 7/13/5 5/11/5 1/3/5
f 4/10/6 2/6/6 6/12/6
f 25/58/3 26/62/3 65/154/3
f 24/56/1 40/96/1 60/144/1
f 40/96/6 25/59/6 57/137/6
f 24/56/5 62/148/5 65/155/5
f 21/48/3 22/52/3 54/127/3
f 29/68/1 27/64/1 52/123/1
f 27/64/6 21/49/6 48/115/6
f 29/68/5 53/125/5 54/128/5
f 13/28/3 18/40/3 45/106/3
f 23/54/1 17/37/1 46/109/1
f 17/37/6 13/29/6 70/170/6
f 23/54/5 49/117/5 45/107/5
f 37/87/3 39/94/3 58/139/3
f 41/98/1 44/104/1 64/152/1
f 44/104/6 37/88/6 55/131/6
f 41/98/5 61/146/5 58/140/5
f 19/42/3 20/46/3 47/111/3
f 28/66/1 36/85/1 50/119/1
f 36/85/6 19/43/6 74/179/6
f 28/66/5 51/121/5 47/112/5
f 11/22/3 12/26/3 69/166/3
f 16/35/1 15/33/1 72/174/1
f 15/33/6 11/23/6 68/164/6
f 16/35/5 77/187/5 69/167/5
f 34/80/3 38/91/3 56/133/3
f 43/102/1 42/100/1 59/142/1
f 42/100/6 34/81/6 79/192/6
f 43/102/5 63/150/5 56/134/5
f 32/75/3 31/73/3 76/184/3
f 35/83/1 33/78/1 80/194/1
f 33/78/6 32/76/6 75/182/6
f 35/83/5 78/189/5 76/185/5
f 9/16/3 10/20/3 67/160/3
f 14/31/1 30/70/1 73/176/1
f 30/70/6 9/17/6 66/158/6
f 14/31/5 71/172/5 67/161/5
