# Blender 3.4.1
# www.blender.org
mtllib cozy2_drawer1.mtl
g Cube.008_Cube.008
v 0.695094 0.026734 -3.148705
v 0.695094 0.245746 -3.148705
v 0.695094 0.026734 -3.628705
v 0.695094 0.026734 -3.156176
v 0.706780 0.245746 -3.163422
v 0.706780 0.036799 -3.163422
v 1.445094 0.026734 -3.148705
v 1.445094 0.245746 -3.156176
v 1.445094 0.026734 -3.156176
v 0.695094 0.245746 -3.628705
v 1.445094 0.245746 -3.148705
v 1.445094 0.026734 -3.628705
v 1.445094 0.245746 -3.628705
v 0.706780 0.245746 -3.156184
v 0.706780 0.245746 -3.621226
v 1.433408 0.245746 -3.156184
v 1.433408 0.245746 -3.621226
v 0.706780 0.036799 -3.156184
v 0.706780 0.036799 -3.621226
v 1.433408 0.036799 -3.156184
v 1.433408 0.036799 -3.621226
v 0.695094 0.245746 -3.156176
v 1.433408 0.245746 -3.163422
v 1.433408 0.036799 -3.163422
v 1.452828 0.026734 -3.148705
v 1.452828 0.245746 -3.156176
v 1.452828 0.026734 -3.156176
v 1.452828 0.245746 -3.148705
v 0.687542 0.026734 -3.148705
v 0.687542 0.245746 -3.148705
v 0.687542 0.026734 -3.156176
v 0.687542 0.245746 -3.156176
v 0.695094 0.254016 -3.148705
v 1.445094 0.254016 -3.156176
v 1.445094 0.254016 -3.148705
v 0.706780 0.254016 -3.156184
v 1.433408 0.254016 -3.156184
v 0.695094 0.254016 -3.156176
v 1.452828 0.254016 -3.156176
v 1.452828 0.254016 -3.148705
v 0.687542 0.254016 -3.148705
v 0.687542 0.254016 -3.156176
vn -1.0000 -0.0000 -0.0000
vn -0.0000 -0.0000 -1.0000
vn -0.0000 -0.0000 1.0000
vn -0.0000 -1.0000 -0.0000
vn -0.0000 1.0000 -0.0000
vn 1.0000 -0.0000 -0.0000
vn -0.0007 -0.0000 -1.0000
vn -0.5391 -0.0000 -0.8423
vn 0.5391 -0.0000 -0.8423
vn 0.0007 -0.0000 -1.0000
vt 0.375000 1.000000
vt 0.125000 0.750000
vt 0.625000 0.000000
vt 0.625000 1.000000
vt 0.375000 0.250000
vt 0.125000 0.500000
vt 0.125000 0.746109
vt 0.375000 0.003891
vt 0.625000 0.003891
vt 0.625000 0.003891
vt 0.875000 0.746109
vt 0.375000 0.750000
vt 0.625000 0.746109
vt 0.000000 0.000000
vt 0.375000 0.746109
vt 0.625000 0.250000
vt 0.625000 0.750000
vt 0.375000 0.500000
vt 0.625000 0.500000
vt 0.625000 1.000000
vt 0.000000 0.000000
vt 0.625000 0.000000
vt 0.625000 0.250000
vt 0.625000 0.750000
vt 0.000000 0.000000
vt 0.625000 0.500000
vt 0.875000 0.750000
vt 0.625000 0.000000
vt 0.625000 1.000000
vt 0.875000 0.500000
vt 0.625000 0.250000
vt 0.625000 0.750000
vt 0.625000 0.500000
vt 0.000000 0.000000
vt 0.625000 0.003891
vt 0.625000 0.746109
vt 0.625000 0.746109
vt 0.375000 0.750000
vt 0.625000 0.746109
vt 0.375000 0.746109
vt 0.625000 0.750000
vt 0.375000 1.000000
vt 0.375000 0.000000
vt 0.125000 0.750000
vt 0.625000 0.000000
vt 0.625000 1.000000
vt 0.125000 0.746109
vt 0.375000 0.003891
vt 0.625000 0.003891
vt 0.625000 0.000000
vt 0.625000 1.000000
vt 0.000000 0.000000
vt 0.625000 0.746109
vt 0.000000 0.000000
vt 0.625000 0.750000
vt 0.000000 0.000000
vt 0.625000 1.000000
vt 0.625000 0.000000
vt 0.000000 0.000000
vt 0.625000 0.750000
vt 0.000000 0.000000
vt 0.625000 0.003891
vt 0.000000 0.000000
vt 0.625000 0.746109
vt 0.625000 0.750000
vt 0.625000 0.000000
vt 0.625000 1.000000
vt 0.625000 0.003891
s 0
g off
f 4/8/1 22/35/1 10/16/1 3/5/1
f 3/5/2 10/16/2 13/19/2 12/18/2
f 7/12/3 11/17/3 2/4/3 1/1/3
f 4/7/4 9/15/4 7/12/4 1/2/4
f 8/13/5 13/19/5 17/26/5 23/36/5
f 22/35/5 2/3/5 14/22/5 5/9/5
f 15/23/6 5/9/6 6/10/6 19/31/6
f 24/37/5 6/11/5 18/27/5 20/32/5
f 5/9/6 14/22/6 18/28/6 6/10/6
f 21/33/5 19/30/5 6/11/5 24/37/5
f 26/39/6 39/64/6 40/65/6 28/41/6
f 10/16/5 22/35/5 5/9/5 15/23/5
f 11/17/5 8/13/5 23/36/5 16/24/5
f 3/6/4 12/18/4 9/15/4 4/7/4
f 12/18/6 13/19/6 8/13/6 9/15/6
f 2/4/3 30/46/3 29/42/3 1/1/3
f 8/13/2 26/39/2 27/40/2 9/15/2
f 14/20/2 16/24/2 20/32/2 18/29/2
f 13/19/5 10/16/5 15/23/5 17/26/5
f 17/26/3 15/23/3 19/31/3 21/33/3
f 23/36/1 17/26/1 21/33/1 24/37/1
f 16/24/1 23/36/1 24/37/1 20/32/1
f 27/40/6 26/39/6 28/41/6 25/38/6
f 7/12/3 25/38/3 28/41/3 11/17/3
f 9/15/4 27/40/4 25/38/4 7/12/4
f 14/20/2 36/57/2 37/60/2 16/24/2
f 29/43/1 30/45/1 32/49/1 31/48/1
f 14/21/7 22/34/7 38/63/7 36/59/7
f 1/2/4 29/44/4 31/47/4 4/7/4
f 4/8/2 31/48/2 32/49/2 22/35/2
f 33/50/5 35/55/5 37/60/5 36/58/5
f 35/55/5 40/65/5 39/64/5 34/53/5
f 38/62/5 42/68/5 41/66/5 33/50/5
f 30/45/1 41/66/1 42/68/1 32/49/1
f 2/3/8 33/50/8 36/58/8 14/22/8
f 16/24/9 37/60/9 35/55/9 11/17/9
f 8/13/2 34/53/2 39/64/2 26/39/2
f 11/17/1 35/55/1 34/53/1 8/13/1
f 2/4/3 33/51/3 41/67/3 30/46/3
f 28/41/3 40/65/3 35/55/3 11/17/3
f 16/25/10 37/61/10 34/54/10 8/14/10
f 32/49/2 42/68/2 38/62/2 22/35/2
f 22/35/6 38/62/6 33/50/6 2/3/6
f 11/17/3 35/55/3 33/51/3 2/4/3
f 34/54/5 37/61/5 35/56/5
f 33/52/5 36/59/5 38/63/5
