# Blender 3.4.1
# www.blender.org
mtllib desk_drawer1.mtl
g Cube.001_Cube.002
v 0.081545 0.022500 0.903224
v 0.101267 0.041894 0.923247
v 0.081545 0.182500 0.903224
v 0.436545 0.022500 0.903224
v 0.416823 0.041894 0.923247
v 0.436545 0.182500 0.903224
v 0.081545 0.022500 1.683224
v 0.101267 0.041894 1.663201
v 0.081545 0.182500 1.683224
v 0.436545 0.022500 1.683224
v 0.416823 0.041894 1.663201
v 0.436545 0.182500 1.683224
v 0.101267 0.182500 0.923247
v 0.416823 0.182500 0.923247
v 0.101267 0.182500 1.663201
v 0.416823 0.182500 1.663201
v 0.152545 0.022500 0.903224
v 0.193633 0.022500 0.903224
v 0.326295 0.022500 0.903224
v 0.365545 0.022500 0.903224
v 0.164378 0.041894 0.923247
v 0.197577 0.041894 0.923247
v 0.322351 0.041894 0.923247
v 0.353712 0.041894 0.923247
v 0.152545 0.182500 0.903224
v 0.193633 0.182500 0.903224
v 0.326295 0.182500 0.903224
v 0.365545 0.182500 0.903224
v 0.164378 0.182500 0.923247
v 0.197577 0.182500 0.923247
v 0.322351 0.182500 0.923247
v 0.353712 0.182500 0.923247
v 0.164378 0.182500 1.663201
v 0.197577 0.158987 1.663201
v 0.322351 0.158987 1.663201
v 0.353712 0.182500 1.663201
v 0.152545 0.022500 1.683224
v 0.193633 0.022500 1.683224
v 0.326295 0.022500 1.683224
v 0.365545 0.022500 1.683224
v 0.164378 0.041894 1.663201
v 0.197577 0.041894 1.663201
v 0.322351 0.041894 1.663201
v 0.353712 0.041894 1.663201
v 0.152545 0.182500 1.683224
v 0.193633 0.158987 1.683224
v 0.326295 0.158987 1.683224
v 0.365545 0.182500 1.683224
vn -0.0000 -0.0000 -1.0000
vn 1.0000 -0.0000 -0.0000
vn -0.0000 -0.0000 1.0000
vn -1.0000 -0.0000 -0.0000
vn -0.0000 -1.0000 -0.0000
vn -0.0000 1.0000 -0.0000
vn 0.5234 0.8268 0.2062
vn -0.5415 0.8131 0.2134
vt 0.375000 1.000000
vt 0.125000 0.750000
vt 0.375000 0.000000
vt 0.375000 1.000000
vt 0.125000 0.750000
vt 0.375000 0.000000
vt 0.625000 1.000000
vt 0.875000 0.750000
vt 0.625000 0.000000
vt 0.375000 0.250000
vt 0.125000 0.500000
vt 0.375000 0.250000
vt 0.125000 0.500000
vt 0.625000 0.250000
vt 0.875000 0.500000
vt 0.375000 0.750000
vt 0.375000 0.750000
vt 0.625000 0.750000
vt 0.375000 0.500000
vt 0.375000 0.500000
vt 0.625000 0.500000
vt 0.870000 0.736111
vt 0.594697 1.000000
vt 0.594697 0.000000
vt 0.870000 0.513889
vt 0.594697 0.250000
vt 0.630000 0.736111
vt 0.594697 0.750000
vt 0.630000 0.513889
vt 0.594697 0.500000
vt 0.125000 0.700000
vt 0.375000 0.050000
vt 0.125000 0.650000
vt 0.375000 0.100000
vt 0.125000 0.600000
vt 0.375000 0.150000
vt 0.125000 0.550000
vt 0.375000 0.200000
vt 0.125000 0.700000
vt 0.375000 0.050000
vt 0.125000 0.650000
vt 0.375000 0.100000
vt 0.125000 0.600000
vt 0.375000 0.150000
vt 0.125000 0.550000
vt 0.375000 0.200000
vt 0.875000 0.700000
vt 0.625000 0.050000
vt 0.875000 0.650000
vt 0.625000 0.100000
vt 0.875000 0.600000
vt 0.625000 0.150000
vt 0.875000 0.550000
vt 0.625000 0.200000
vt 0.870000 0.691667
vt 0.594697 0.050000
vt 0.870000 0.647222
vt 0.594697 0.100000
vt 0.870000 0.602778
vt 0.594697 0.150000
vt 0.870000 0.558333
vt 0.594697 0.200000
vt 0.630000 0.691667
vt 0.594697 0.700000
vt 0.630000 0.647222
vt 0.594697 0.650000
vt 0.630000 0.602778
vt 0.594697 0.600000
vt 0.630000 0.558333
vt 0.594697 0.550000
vt 0.375000 0.700000
vt 0.375000 0.650000
vt 0.375000 0.600000
vt 0.375000 0.550000
vt 0.375000 0.700000
vt 0.375000 0.650000
vt 0.375000 0.600000
vt 0.375000 0.550000
vt 0.625000 0.700000
vt 0.625000 0.650000
vt 0.625000 0.600000
vt 0.625000 0.550000
s 0
g off
f 20/38/1 28/54/1 6/14/1 4/10/1
f 4/10/2 6/14/2 12/21/2 10/19/2
f 37/71/3 45/79/3 9/18/3 7/16/3
f 7/16/4 9/18/4 3/7/4 1/1/4
f 17/31/5 37/71/5 7/16/5 1/2/5
f 36/69/6 48/82/6 12/21/6 16/29/6
f 29/55/6 25/47/6 3/8/6 9/18/6 15/27/6 13/22/6
f 16/29/6 12/21/6 6/15/6 28/53/6 32/61/6 14/25/6
f 32/61/6 28/53/6 27/51/6 31/59/6
f 31/59/6 27/51/6 26/49/6 30/57/6
f 30/57/6 26/49/6 25/47/6 29/55/6
f 15/27/6 9/18/6 45/79/6 33/63/6
f 33/63/7 45/79/7 46/80/7 34/65/7
f 34/65/6 46/80/6 47/81/6 35/67/6
f 35/67/8 47/81/8 48/82/8 36/69/8
f 4/11/5 10/19/5 40/74/5 20/37/5
f 20/37/5 40/74/5 39/73/5 19/35/5
f 19/35/5 39/73/5 38/72/5 18/33/5
f 18/33/5 38/72/5 37/71/5 17/31/5
f 10/19/3 12/21/3 48/82/3 40/74/3
f 40/74/3 48/82/3 47/81/3 39/73/3
f 39/73/3 47/81/3 46/80/3 38/72/3
f 38/72/3 46/80/3 45/79/3 37/71/3
f 1/3/1 3/9/1 25/48/1 17/32/1
f 17/32/1 25/48/1 26/50/1 18/34/1
f 18/34/1 26/50/1 27/52/1 19/36/1
f 19/36/1 27/52/1 28/54/1 20/38/1
f 32/62/3 24/46/3 5/12/3 14/26/3
f 14/26/4 5/12/4 11/20/4 16/30/4
f 41/75/1 8/17/1 15/28/1 33/64/1
f 8/17/2 2/4/2 13/23/2 15/28/2
f 21/39/6 2/5/6 8/17/6 41/75/6
f 5/13/6 24/45/6 44/78/6 11/20/6
f 24/45/6 23/43/6 43/77/6 44/78/6
f 23/43/6 22/41/6 42/76/6 43/77/6
f 22/41/6 21/39/6 41/75/6 42/76/6
f 11/20/1 44/78/1 36/70/1 16/30/1
f 44/78/1 43/77/1 35/68/1 36/70/1
f 43/77/1 42/76/1 34/66/1 35/68/1
f 42/76/1 41/75/1 33/64/1 34/66/1
f 13/24/3 2/6/3 21/40/3 29/56/3
f 29/56/3 21/40/3 22/42/3 30/58/3
f 30/58/3 22/42/3 23/44/3 31/60/3
f 31/60/3 23/44/3 24/46/3 32/62/3
