# Blender 3.4.1
# www.blender.org
mtllib door1.mtl
g Cube.017_Cube.017
v -2.499997 0.010000 1.927424
v -2.499997 2.010000 1.927424
v -2.499997 0.010000 1.027424
v -2.499997 2.010000 1.027424
v -2.350334 0.010000 1.927424
v -2.350334 2.010000 1.927424
v -2.350334 0.010000 1.027424
v -2.350334 2.010000 1.027424
v -2.499997 1.962708 1.077424
v -2.499997 1.962708 1.877424
v -2.499997 0.010000 1.877424
v -2.499997 0.010000 1.077424
v -2.350334 1.962708 1.877424
v -2.350334 1.962708 1.077424
v -2.350334 0.010000 1.877424
v -2.350334 0.010000 1.077424
v -2.485131 0.010000 1.877424
v -2.365133 0.010000 1.877424
v -2.365133 1.962708 1.877424
v -2.485213 1.962708 1.077424
v -2.365119 0.010000 1.077424
v -2.485213 0.010000 1.077424
v -2.485213 1.962708 1.088853
v -2.365119 1.962708 1.088853
v -2.365119 0.010000 1.088853
v -2.485213 0.010000 1.088853
v -2.485131 0.010000 1.859268
v -2.365133 0.010000 1.859268
v -2.485131 1.962708 1.859268
v -2.365133 1.962708 1.859268
v -2.365122 1.962708 1.077424
v -2.485210 1.962708 1.877424
v -2.485210 1.950603 1.077424
v -2.365122 1.950603 1.077424
v -2.485210 1.950603 1.877424
v -2.365122 1.950603 1.877424
vn -1.0000 -0.0000 -0.0000
vn -0.0000 -0.0000 -1.0000
vn 1.0000 -0.0000 -0.0000
vn -0.0000 -0.0000 1.0000
vn -0.0000 -1.0000 -0.0000
vn -0.0000 1.0000 -0.0000
vn 1.0000 -0.0000 -0.0001
vn -1.0000 -0.0000 -0.0022
vn 1.0000 0.0005 -0.0000
vn -1.0000 -0.0001 -0.0000
vt 0.457619 0.035184
vt 0.457619 0.374228
vt 0.372858 0.289467
vt 0.542381 0.035184
vt 0.542381 0.374228
vt 0.627142 0.289467
vt 0.457619 0.119945
vt 0.372858 0.204706
vt 0.542381 0.119945
vt 0.627142 0.204706
vt 0.457619 0.289467
vt 0.542381 0.289467
vt 0.457619 0.204706
vt 0.542381 0.204706
vt 0.575454 0.204706
vt 0.540376 0.115236
vt 0.575454 0.289467
vt 0.540376 0.039893
vt 0.372858 0.284758
vt 0.457619 0.039893
vt 0.457619 0.115236
vt 0.372858 0.209415
vt 0.540376 0.284758
vt 0.555927 0.289467
vt 0.540376 0.209415
vt 0.555927 0.204706
vt 0.457619 0.284758
vt 0.457619 0.209415
vt 0.372858 0.284758
vt 0.457619 0.039893
vt 0.457619 0.284758
vt 0.540376 0.284758
vt 0.555927 0.289467
vt 0.575454 0.204706
vt 0.540376 0.115236
vt 0.457619 0.209415
vt 0.457619 0.115236
vt 0.372858 0.209415
vt 0.540376 0.115236
vt 0.542381 0.171633
vt 0.575454 0.204706
vt 0.542381 0.191159
vt 0.540376 0.209415
vt 0.555927 0.204706
vt 0.457619 0.191159
vt 0.457619 0.209415
vt 0.457619 0.115236
vt 0.457619 0.171633
vt 0.372858 0.209415
vt 0.457619 0.322540
vt 0.372858 0.284758
vt 0.457619 0.039893
vt 0.457619 0.303014
vt 0.457619 0.284758
vt 0.542381 0.322540
vt 0.540376 0.039893
vt 0.575454 0.289467
vt 0.540376 0.284758
vt 0.542381 0.303014
vt 0.555927 0.289467
vt 0.540376 0.209415
vt 0.555927 0.204706
vt 0.575454 0.289467
vt 0.540376 0.039893
vt 0.575454 0.204706
vt 0.540376 0.115236
vt 0.540376 0.209415
vt 0.555927 0.204706
vt 0.575454 0.289467
vt 0.540376 0.039893
vt 0.540376 0.284758
vt 0.555927 0.289467
s 0
g off
g Cube.017_Material.003
usemtl Material.003
f 1/1/1 2/4/1 4/9/1 3/7/1 12/21/1 9/16/1 10/18/1 11/20/1
f 3/7/2 4/9/2 8/14/2 7/13/2
f 16/28/3 7/13/3 8/14/3 6/12/3 5/11/3 15/27/3 13/23/3 14/25/3
f 5/11/4 6/12/4 2/5/4 1/2/4
f 15/27/5 5/11/5 1/3/5 11/19/5
f 12/22/5 3/8/5 7/13/5 16/28/5
f 8/14/6 4/10/6 2/6/6 6/12/6
f 16/28/4 14/25/4 31/61/4 21/36/4
f 15/27/6 11/19/6 17/29/6 18/31/6
f 14/25/5 13/23/5 19/32/5 31/61/5
f 19/32/3 18/31/3 28/54/3 30/58/3
f 11/20/2 10/18/2 32/64/2 17/30/2
f 13/23/2 15/27/2 18/31/2 19/32/2
f 10/17/5 13/24/5 19/33/5 32/63/5
f 20/35/1 22/37/1 26/47/1 23/39/1
f 14/26/6 9/15/6 20/34/6 31/62/6
f 9/16/4 12/21/4 22/37/4 20/35/4
f 12/22/6 16/28/6 21/36/6 22/38/6
f 24/42/4 23/40/4 26/48/4 25/45/4
f 21/36/7 31/61/7 24/43/7 25/46/7
f 22/38/5 21/36/5 25/46/5 26/49/5
f 31/62/6 20/34/6 23/41/6 24/44/6
f 29/55/2 30/59/2 28/53/2 27/50/2
f 18/31/5 17/29/5 27/51/5 28/54/5
f 17/30/8 32/64/8 29/56/8 27/52/8
f 32/63/6 19/33/6 30/60/6 29/57/6
f 31/61/9 19/32/9 36/71/9 34/67/9
f 10/18/5 9/16/5 20/35/5 32/64/5
f 33/65/5 34/68/5 36/72/5 35/69/5
f 20/34/2 31/62/2 34/68/2 33/65/2
f 19/33/4 32/63/4 35/69/4 36/72/4
f 32/64/10 20/35/10 33/66/10 35/70/10
