# Blender 3.4.1
# www.blender.org
mtllib monitor_holder.mtl
g Cube.022_Cube.022
v 0.755427 1.075305 1.195234
v 0.755427 1.175305 1.195234
v 0.668824 1.075305 1.245234
v 0.668824 1.175305 1.245234
v 0.756418 1.075305 1.196951
v 0.756418 1.175305 1.196951
v 0.669815 1.075305 1.246951
v 0.669815 1.175305 1.246951
v 0.719757 1.114316 1.215828
v 0.719757 1.136294 1.215828
v 0.704494 1.114316 1.224640
v 0.704494 1.136294 1.224640
v 0.709094 1.114316 1.197359
v 0.709094 1.136294 1.197359
v 0.693831 1.114316 1.206172
v 0.693831 1.136294 1.206172
v 0.701289 1.136294 1.219090
v 0.716553 1.136294 1.210278
v 0.716553 1.114316 1.210278
v 0.701289 1.114316 1.219090
v 1.752570 1.075305 1.195460
v 1.752570 1.175305 1.195460
v 1.839173 1.075305 1.245460
v 1.839173 1.175305 1.245460
v 1.751579 1.075305 1.197177
v 1.751579 1.175305 1.197177
v 1.838181 1.075305 1.247177
v 1.838181 1.175305 1.247177
v 1.788239 1.114316 1.216054
v 1.788239 1.136294 1.216054
v 1.803503 1.114316 1.224866
v 1.803503 1.136294 1.224866
v 1.798903 1.114316 1.197586
v 1.798903 1.136294 1.197586
v 1.814166 1.114316 1.206398
v 1.814166 1.136294 1.206398
v 1.806708 1.136294 1.219317
v 1.791444 1.136294 1.210504
v 1.791444 1.114316 1.210504
v 1.806708 1.114316 1.219317
v 1.612274 1.091027 1.036370
v 1.615601 1.091027 1.019062
v 1.624938 1.091027 1.038805
v 1.628267 1.091027 1.021497
v 1.612274 1.066878 1.036370
v 1.615601 1.066878 1.019062
v 1.624938 1.066878 1.038805
v 1.628267 1.066878 1.021497
v 1.259713 1.091027 0.968588
v 1.263040 1.091027 0.951281
v 1.259713 1.066878 0.968588
v 1.263040 1.066878 0.951281
v 1.793025 1.114316 1.208802
v 1.805360 1.114316 1.196213
v 1.803679 1.114316 1.219242
v 1.816014 1.114316 1.206654
v 1.793025 1.091027 1.208802
v 1.805360 1.091027 1.196213
v 1.803679 1.091027 1.219242
v 1.816014 1.091027 1.206654
v 1.611876 1.114316 1.031290
v 1.624212 1.114316 1.018702
v 1.611876 1.091027 1.031290
v 1.624212 1.091027 1.018702
v 1.621088 1.114316 1.040317
v 1.621088 1.091027 1.040317
v 1.633424 1.091027 1.027729
v 1.633424 1.114316 1.027729
v 1.245689 1.091027 1.054344
v 1.263313 1.091027 1.054344
v 1.245689 1.091027 1.067241
v 1.263313 1.091027 1.067241
v 1.245689 1.066879 1.054344
v 1.263313 1.066879 1.054344
v 1.245689 1.066879 1.067241
v 1.263313 1.066879 1.067241
v 1.245689 1.091027 0.962140
v 1.263313 1.091027 0.962140
v 1.245689 1.066879 0.962140
v 1.263313 1.066879 0.962140
v 1.204240 1.075305 1.075478
v 1.204240 1.175305 1.075478
v 1.304240 1.075305 1.075478
v 1.304240 1.175305 1.075478
v 1.204240 1.075305 1.077460
v 1.204240 1.175305 1.077460
v 1.304240 1.075305 1.077460
v 1.304240 1.175305 1.077460
v 1.245428 1.114316 1.075478
v 1.245428 1.136294 1.075478
v 1.263052 1.114316 1.075478
v 1.263052 1.136294 1.075478
v 1.245428 1.114316 1.054153
v 1.245428 1.136294 1.054153
v 1.263052 1.114316 1.054153
v 1.263052 1.136294 1.054153
v 1.263052 1.136294 1.069070
v 1.245428 1.136294 1.069070
v 1.245428 1.114316 1.069070
v 1.263052 1.114316 1.069070
v 0.896456 1.091027 1.036457
v 0.893128 1.091027 1.019150
v 0.883791 1.091027 1.038892
v 0.880463 1.091027 1.021585
v 0.896456 1.066878 1.036457
v 0.893128 1.066878 1.019150
v 0.883791 1.066878 1.038892
v 0.880463 1.066878 1.021585
v 1.249017 1.091027 0.968676
v 1.245689 1.091027 0.951368
v 1.249017 1.066878 0.968676
v 1.245689 1.066878 0.951368
v 0.717709 1.114316 1.210201
v 0.705374 1.114316 1.197613
v 0.707055 1.114316 1.220642
v 0.694720 1.114316 1.208054
v 0.717709 1.091027 1.210201
v 0.705374 1.091027 1.197613
v 0.707055 1.091027 1.220642
v 0.694720 1.091027 1.208054
v 0.898858 1.114316 1.032690
v 0.886522 1.114316 1.020102
v 0.898858 1.091027 1.032690
v 0.886522 1.091027 1.020102
v 0.889646 1.114316 1.041717
v 0.889646 1.091027 1.041717
v 0.877310 1.091027 1.029129
v 0.877310 1.114316 1.029129
v 1.254240 0.723417 0.943174
v 1.254240 1.223417 0.943174
v 1.257166 0.723417 0.943462
v 1.257166 1.223417 0.943462
v 1.259980 0.723417 0.944315
v 1.259980 1.223417 0.944315
v 1.262574 0.723417 0.945702
v 1.262574 1.223417 0.945702
v 1.264847 0.723417 0.947567
v 1.264847 1.223417 0.947567
v 1.266712 0.723417 0.949840
v 1.266712 1.223417 0.949840
v 1.268098 0.723417 0.952433
v 1.268098 1.223417 0.952433
v 1.268952 0.723417 0.955247
v 1.268952 1.223417 0.955247
v 1.269240 0.723417 0.958174
v 1.269240 1.223417 0.958174
v 1.268952 0.723417 0.961100
v 1.268952 1.223417 0.961100
v 1.268098 0.723417 0.963914
v 1.268098 1.223417 0.963914
v 1.266712 0.723417 0.966507
v 1.266712 1.223417 0.966507
v 1.264847 0.723417 0.968780
v 1.264847 1.223417 0.968780
v 1.262574 0.723417 0.970646
v 1.262574 1.223417 0.970646
v 1.259980 0.723417 0.972032
v 1.259980 1.223417 0.972032
v 1.257166 0.723417 0.972885
v 1.257166 1.223417 0.972885
v 1.254240 0.723417 0.973174
v 1.254240 1.223417 0.973174
v 1.251314 0.723417 0.972885
v 1.251314 1.223417 0.972885
v 1.248500 0.723417 0.972032
v 1.248500 1.223417 0.972032
v 1.245906 0.723417 0.970646
v 1.245906 1.223417 0.970646
v 1.243633 0.723417 0.968780
v 1.243633 1.223417 0.968780
v 1.241768 0.723417 0.966507
v 1.241768 1.223417 0.966507
v 1.240382 0.723417 0.963914
v 1.240382 1.223417 0.963914
v 1.239528 0.723417 0.961100
v 1.239528 1.223417 0.961100
v 1.239240 0.723417 0.958174
v 1.239240 1.223417 0.958174
v 1.239528 0.723417 0.955247
v 1.239528 1.223417 0.955247
v 1.240382 0.723417 0.952433
v 1.240382 1.223417 0.952433
v 1.241768 0.723417 0.949840
v 1.241768 1.223417 0.949840
v 1.243633 0.723417 0.947567
v 1.243633 1.223417 0.947567
v 1.245906 0.723417 0.945702
v 1.245906 1.223417 0.945702
v 1.248500 0.723417 0.944315
v 1.248500 1.223417 0.944315
v 1.251314 0.723417 0.943462
v 1.251314 1.223417 0.943462
vn 0.8661 -0.0000 -0.4999
vn -0.5000 -0.0000 -0.8660
vn 0.5000 -0.0000 0.8660
vn -0.0000 1.0000 -0.0000
vn -0.0000 -1.0000 -0.0000
vn -0.8659 -0.0000 0.5002
vn 0.8660 -0.0000 -0.5000
vn -0.8660 -0.0000 0.5000
vn -0.8660 -0.0000 0.5001
vn -0.8660 -0.0000 -0.5001
vn 0.5000 -0.0000 -0.8660
vn -0.5000 -0.0000 0.8660
vn 0.8659 -0.0000 0.5002
vn -0.8660 -0.0000 -0.5000
vn 0.8661 -0.0000 0.5000
vn -0.1888 -0.0000 0.9820
vn 0.9820 -0.0000 0.1888
vn 0.1888 -0.0000 -0.9820
vn -0.9820 -0.0000 -0.1888
vn 0.6999 -0.0000 -0.7142
vn -0.6999 -0.0000 0.7142
vn 0.7142 -0.0000 0.6999
vn -0.7142 -0.0000 -0.6999
vn -1.0000 -0.0000 -0.0000
vn -0.0000 -0.0000 1.0000
vn 1.0000 -0.0000 -0.0000
vn -0.0000 -0.0000 -1.0000
vn 0.1888 -0.0000 0.9820
vn -0.9820 -0.0000 0.1888
vn -0.1888 -0.0000 -0.9820
vn 0.9820 -0.0000 -0.1888
vn -0.6999 -0.0000 -0.7142
vn 0.6999 -0.0000 0.7142
vn -0.7142 -0.0000 0.6999
vn 0.7142 -0.0000 -0.6999
vn 0.0980 -0.0000 -0.9952
vn 0.2901 -0.0000 -0.9570
vn 0.4715 -0.0000 -0.8819
vn 0.6343 -0.0000 -0.7731
vn 0.7731 -0.0000 -0.6343
vn 0.8819 -0.0000 -0.4714
vn 0.9569 -0.0000 -0.2904
vn 0.9952 -0.0000 -0.0979
vn 0.9952 -0.0000 0.0980
vn 0.9569 -0.0000 0.2904
vn 0.8819 -0.0000 0.4714
vn 0.7731 -0.0000 0.6343
vn 0.6345 -0.0000 0.7729
vn 0.4713 -0.0000 0.8820
vn 0.2901 -0.0000 0.9570
vn 0.0983 -0.0000 0.9952
vn -0.0983 -0.0000 0.9952
vn -0.2901 -0.0000 0.9570
vn -0.4713 -0.0000 0.8820
vn -0.6345 -0.0000 0.7729
vn -0.7731 -0.0000 0.6343
vn -0.8819 -0.0000 0.4714
vn -0.9569 -0.0000 0.2904
vn -0.9952 -0.0000 0.0980
vn -0.9952 -0.0000 -0.0979
vn -0.9569 -0.0000 -0.2904
vn -0.8819 -0.0000 -0.4714
vn -0.7731 -0.0000 -0.6343
vn -0.6343 -0.0000 -0.7731
vn -0.4715 -0.0000 -0.8819
vn -0.2901 -0.0000 -0.9570
vn -0.0980 -0.0000 -0.9952
vt 0.375000 0.250000
vt 0.125000 0.500000
vt 0.875000 0.500000
vt 0.625000 0.250000
vt 0.375000 0.500000
vt 0.625000 0.500000
vt 0.375000 0.125000
vt 0.125000 0.625000
vt 0.625000 0.125000
vt 0.875000 0.625000
vt 0.375000 0.625000
vt 0.625000 0.625000
vt 0.125000 0.500000
vt 0.375000 0.250000
vt 0.625000 0.250000
vt 0.875000 0.500000
vt 0.375000 0.500000
vt 0.625000 0.500000
vt 0.375000 0.250000
vt 0.875000 0.500000
vt 0.625000 0.250000
vt 0.375000 0.500000
vt 0.625000 0.500000
vt 0.625000 0.500000
vt 0.625000 0.250000
vt 0.875000 0.500000
vt 0.125000 0.500000
vt 0.375000 0.250000
vt 0.375000 0.500000
vt 0.375000 0.250000
vt 0.125000 0.500000
vt 0.875000 0.500000
vt 0.625000 0.250000
vt 0.375000 0.500000
vt 0.625000 0.500000
vt 0.375000 0.125000
vt 0.125000 0.625000
vt 0.625000 0.125000
vt 0.875000 0.625000
vt 0.375000 0.625000
vt 0.625000 0.625000
vt 0.125000 0.500000
vt 0.375000 0.250000
vt 0.625000 0.250000
vt 0.875000 0.500000
vt 0.375000 0.500000
vt 0.625000 0.500000
vt 0.375000 0.250000
vt 0.875000 0.500000
vt 0.625000 0.250000
vt 0.375000 0.500000
vt 0.625000 0.500000
vt 0.625000 0.500000
vt 0.625000 0.250000
vt 0.875000 0.500000
vt 0.125000 0.500000
vt 0.375000 0.250000
vt 0.375000 0.500000
vt 0.375000 0.250000
vt 0.375000 0.500000
vt 0.375000 0.250000
vt 0.125000 0.500000
vt 0.375000 0.500000
vt 0.375000 0.250000
vt 0.125000 0.500000
vt 0.375000 0.500000
vt 0.375000 0.250000
vt 0.125000 0.500000
vt 0.375000 0.500000
vt 0.375000 0.250000
vt 0.375000 0.500000
vt 0.375000 0.250000
vt 0.125000 0.500000
vt 0.375000 0.500000
vt 0.375000 0.250000
vt 0.375000 0.500000
vt 0.375000 0.250000
vt 0.125000 0.500000
vt 0.375000 0.500000
vt 0.125000 0.500000
vt 0.375000 0.250000
vt 0.375000 0.500000
vt 0.125000 0.500000
vt 0.375000 0.250000
vt 0.375000 0.500000
vt 0.375000 0.250000
vt 0.375000 0.500000
vt 0.375000 0.250000
vt 0.375000 0.500000
vt 0.375000 0.250000
vt 0.125000 0.500000
vt 0.375000 0.250000
vt 0.375000 0.500000
vt 0.375000 0.500000
vt 0.375000 0.250000
vt 0.375000 0.500000
vt 0.375000 0.250000
vt 0.125000 0.500000
vt 0.375000 0.500000
vt 0.375000 0.250000
vt 0.125000 0.500000
vt 0.375000 0.500000
vt 0.375000 0.250000
vt 0.125000 0.500000
vt 0.375000 0.500000
vt 0.375000 0.250000
vt 0.375000 0.500000
vt 0.375000 0.250000
vt 0.125000 0.500000
vt 0.375000 0.500000
vt 0.375000 0.250000
vt 0.125000 0.500000
vt 0.875000 0.500000
vt 0.625000 0.250000
vt 0.375000 0.500000
vt 0.625000 0.500000
vt 0.375000 0.125000
vt 0.125000 0.625000
vt 0.625000 0.125000
vt 0.875000 0.625000
vt 0.375000 0.625000
vt 0.625000 0.625000
vt 0.125000 0.500000
vt 0.375000 0.250000
vt 0.625000 0.250000
vt 0.875000 0.500000
vt 0.375000 0.500000
vt 0.625000 0.500000
vt 0.375000 0.250000
vt 0.875000 0.500000
vt 0.625000 0.250000
vt 0.375000 0.500000
vt 0.625000 0.500000
vt 0.625000 0.500000
vt 0.625000 0.250000
vt 0.875000 0.500000
vt 0.125000 0.500000
vt 0.375000 0.250000
vt 0.375000 0.500000
vt 0.375000 0.250000
vt 0.375000 0.500000
vt 0.375000 0.250000
vt 0.125000 0.500000
vt 0.375000 0.500000
vt 0.375000 0.250000
vt 0.125000 0.500000
vt 0.375000 0.500000
vt 0.375000 0.250000
vt 0.125000 0.500000
vt 0.375000 0.500000
vt 0.375000 0.250000
vt 0.375000 0.500000
vt 0.375000 0.250000
vt 0.125000 0.500000
vt 0.375000 0.500000
vt 0.375000 0.250000
vt 0.375000 0.500000
vt 0.375000 0.250000
vt 0.125000 0.500000
vt 0.375000 0.500000
vt 0.125000 0.500000
vt 0.375000 0.250000
vt 0.375000 0.500000
vt 0.125000 0.500000
vt 0.375000 0.250000
vt 0.375000 0.500000
vt 0.375000 0.250000
vt 0.375000 0.500000
vt 0.375000 0.250000
vt 0.375000 0.500000
vt 0.375000 0.250000
vt 0.125000 0.500000
vt 0.375000 0.250000
vt 0.375000 0.500000
vt 0.375000 0.500000
vt 1.000000 0.500000
vt 0.000000 0.500000
vt 0.750000 0.490000
vt 1.000000 1.000000
vt 0.250000 0.490000
vt 0.000000 1.000000
vt 0.968750 0.500000
vt 0.796822 0.485388
vt 0.968750 1.000000
vt 0.296822 0.485388
vt 0.937500 0.500000
vt 0.841844 0.471731
vt 0.937500 1.000000
vt 0.341844 0.471731
vt 0.906250 0.500000
vt 0.883337 0.449553
vt 0.906250 1.000000
vt 0.383337 0.449553
vt 0.875000 0.500000
vt 0.919706 0.419706
vt 0.875000 1.000000
vt 0.419706 0.419706
vt 0.843750 0.500000
vt 0.949553 0.383337
vt 0.843750 1.000000
vt 0.449553 0.383337
vt 0.812500 0.500000
vt 0.971731 0.341844
vt 0.812500 1.000000
vt 0.471731 0.341844
vt 0.781250 0.500000
vt 0.985388 0.296822
vt 0.781250 1.000000
vt 0.485388 0.296822
vt 0.750000 0.500000
vt 0.990000 0.250000
vt 0.750000 1.000000
vt 0.490000 0.250000
vt 0.718750 0.500000
vt 0.985388 0.203178
vt 0.718750 1.000000
vt 0.485388 0.203178
vt 0.687500 0.500000
vt 0.971731 0.158156
vt 0.687500 1.000000
vt 0.471731 0.158156
vt 0.656250 0.500000
vt 0.949553 0.116663
vt 0.656250 1.000000
vt 0.449553 0.116663
vt 0.625000 0.500000
vt 0.919706 0.080294
vt 0.625000 1.000000
vt 0.419706 0.080294
vt 0.593750 0.500000
vt 0.883337 0.050447
vt 0.593750 1.000000
vt 0.383337 0.050447
vt 0.562500 0.500000
vt 0.841844 0.028269
vt 0.562500 1.000000
vt 0.341844 0.028269
vt 0.531250 0.500000
vt 0.796822 0.014612
vt 0.531250 1.000000
vt 0.296822 0.014612
vt 0.500000 0.500000
vt 0.750000 0.010000
vt 0.500000 1.000000
vt 0.250000 0.010000
vt 0.468750 0.500000
vt 0.703178 0.014612
vt 0.468750 1.000000
vt 0.203178 0.014612
vt 0.437500 0.500000
vt 0.658156 0.028269
vt 0.437500 1.000000
vt 0.158156 0.028269
vt 0.406250 0.500000
vt 0.616663 0.050447
vt 0.406250 1.000000
vt 0.116663 0.050447
vt 0.375000 0.500000
vt 0.580294 0.080294
vt 0.375000 1.000000
vt 0.080294 0.080294
vt 0.343750 0.500000
vt 0.550447 0.116663
vt 0.343750 1.000000
vt 0.050447 0.116663
vt 0.312500 0.500000
vt 0.528269 0.158156
vt 0.312500 1.000000
vt 0.028269 0.158156
vt 0.281250 0.500000
vt 0.514612 0.203178
vt 0.281250 1.000000
vt 0.014612 0.203178
vt 0.250000 0.500000
vt 0.510000 0.250000
vt 0.250000 1.000000
vt 0.010000 0.250000
vt 0.218750 0.500000
vt 0.514612 0.296822
vt 0.218750 1.000000
vt 0.014612 0.296822
vt 0.187500 0.500000
vt 0.528269 0.341844
vt 0.187500 1.000000
vt 0.028269 0.341844
vt 0.156250 0.500000
vt 0.550447 0.383337
vt 0.156250 1.000000
vt 0.050447 0.383337
vt 0.125000 0.500000
vt 0.580294 0.419706
vt 0.125000 1.000000
vt 0.080294 0.419706
vt 0.093750 0.500000
vt 0.616663 0.449553
vt 0.093750 1.000000
vt 0.116663 0.449553
vt 0.062500 0.500000
vt 0.658156 0.471731
vt 0.158156 0.471731
vt 0.062500 1.000000
vt 0.031250 0.500000
vt 0.703178 0.485388
vt 0.203178 0.485388
vt 0.031250 1.000000
s 0
g off
g Cube.022_Material.004
usemtl Material.004
f 5/7/1 1/1/1 2/4/1 6/9/1
f 2/3/2 10/16/2 12/18/2 4/6/2
f 6/9/3 8/12/3 7/11/3 5/7/3
f 4/6/4 8/12/4 6/10/4 2/3/4
f 1/2/5 5/8/5 7/11/5 3/5/5
f 3/5/6 7/11/6 8/12/6 4/6/6
f 18/26/4 14/20/4 16/23/4 17/24/4
f 1/1/2 9/14/2 10/15/2 2/4/2
f 4/6/2 12/18/2 11/17/2 3/5/2
f 3/5/2 11/17/2 9/13/2 1/2/2
f 13/19/2 15/22/2 16/23/2 14/21/2
f 19/28/7 13/19/7 14/21/7 18/25/7
f 17/24/8 16/23/8 15/22/8 20/29/8
f 11/17/5 20/29/5 19/27/5 9/13/5
f 12/18/9 17/24/9 20/29/9 11/17/9
f 9/14/7 19/28/7 18/25/7 10/15/7
f 10/16/4 18/26/4 17/24/4 12/18/4
f 25/36/10 26/38/10 22/33/10 21/30/10
f 22/32/11 24/35/11 32/47/11 30/45/11
f 26/38/12 25/36/12 27/40/12 28/41/12
f 24/35/4 22/32/4 26/39/4 28/41/4
f 21/31/5 23/34/5 27/40/5 25/37/5
f 23/34/13 24/35/13 28/41/13 27/40/13
f 38/55/4 37/53/4 36/52/4 34/49/4
f 21/30/11 22/33/11 30/44/11 29/43/11
f 24/35/11 23/34/11 31/46/11 32/47/11
f 23/34/11 21/31/11 29/42/11 31/46/11
f 33/48/11 34/50/11 36/52/11 35/51/11
f 39/57/14 38/54/14 34/50/14 33/48/14
f 37/53/15 40/58/15 35/51/15 36/52/15
f 31/46/5 29/42/5 39/56/5 40/58/5
f 32/47/13 31/46/13 40/58/13 37/53/13
f 29/43/14 30/44/14 38/54/14 39/57/14
f 30/45/4 32/47/4 37/53/4 38/55/4
f 43/61/16 41/59/16 45/64/16 47/67/16
f 48/69/5 47/68/5 45/65/5 46/66/5
f 44/63/17 43/62/17 47/68/17 48/69/17
f 45/64/16 41/59/16 49/70/16 51/72/16
f 42/60/18 44/63/18 48/69/18 46/66/18
f 49/70/19 50/71/19 52/74/19 51/72/19
f 46/66/5 45/65/5 51/73/5 52/74/5
f 41/59/4 42/60/4 50/71/4 49/70/4
f 42/60/18 46/66/18 52/74/18 50/71/18
f 54/76/20 56/79/20 60/85/20 58/82/20
f 60/85/5 59/83/5 57/80/5 58/82/5
f 66/92/21 65/90/21 61/86/21 63/88/21
f 56/79/22 55/78/22 59/83/22 60/85/22
f 55/77/21 53/75/21 57/81/21 59/84/21
f 61/86/23 62/87/23 64/89/23 63/88/23
f 65/90/4 68/94/4 62/87/4 61/86/4
f 68/94/20 67/93/20 64/89/20 62/87/20
f 54/76/20 58/82/20 67/93/20 68/94/20
f 53/75/4 54/76/4 68/94/4 65/90/4
f 58/82/5 57/80/5 66/91/5 67/93/5
f 57/81/21 53/75/21 65/90/21 66/92/21
f 54/76/4 53/75/4 55/78/4 56/79/4
f 71/97/24 69/95/24 73/100/24 75/103/24
f 76/105/5 75/104/5 73/101/5 74/102/5
f 72/99/25 71/98/25 75/104/25 76/105/25
f 73/100/24 69/95/24 77/106/24 79/108/24
f 70/96/26 72/99/26 76/105/26 74/102/26
f 77/106/27 78/107/27 80/110/27 79/108/27
f 74/102/5 73/101/5 79/109/5 80/110/5
f 69/95/4 70/96/4 78/107/4 77/106/4
f 70/96/26 74/102/26 80/110/26 78/107/26
f 85/117/24 86/119/24 82/114/24 81/111/24
f 82/113/27 84/116/27 92/128/27 90/126/27
f 86/119/25 85/117/25 87/121/25 88/122/25
f 84/116/4 82/113/4 86/120/4 88/122/4
f 81/112/5 83/115/5 87/121/5 85/118/5
f 83/115/26 84/116/26 88/122/26 87/121/26
f 98/136/4 97/134/4 96/133/4 94/130/4
f 81/111/27 82/114/27 90/125/27 89/124/27
f 84/116/27 83/115/27 91/127/27 92/128/27
f 83/115/27 81/112/27 89/123/27 91/127/27
f 93/129/27 94/131/27 96/133/27 95/132/27
f 99/138/24 98/135/24 94/131/24 93/129/24
f 97/134/26 100/139/26 95/132/26 96/133/26
f 91/127/5 89/123/5 99/137/5 100/139/5
f 92/128/26 91/127/26 100/139/26 97/134/26
f 89/124/24 90/125/24 98/135/24 99/138/24
f 90/126/4 92/128/4 97/134/4 98/136/4
f 103/142/28 107/148/28 105/145/28 101/140/28
f 108/150/5 106/147/5 105/146/5 107/149/5
f 104/144/29 108/150/29 107/149/29 103/143/29
f 105/145/28 111/153/28 109/151/28 101/140/28
f 102/141/30 106/147/30 108/150/30 104/144/30
f 109/151/31 111/153/31 112/155/31 110/152/31
f 106/147/5 112/155/5 111/154/5 105/146/5
f 101/140/4 109/151/4 110/152/4 102/141/4
f 102/141/30 110/152/30 112/155/30 106/147/30
f 114/157/32 118/163/32 120/166/32 116/160/32
f 120/166/5 118/163/5 117/161/5 119/164/5
f 126/173/33 123/169/33 121/167/33 125/171/33
f 116/160/34 120/166/34 119/164/34 115/159/34
f 115/158/33 119/165/33 117/162/33 113/156/33
f 121/167/35 123/169/35 124/170/35 122/168/35
f 125/171/4 121/167/4 122/168/4 128/175/4
f 128/175/32 122/168/32 124/170/32 127/174/32
f 114/157/32 128/175/32 127/174/32 118/163/32
f 113/156/4 125/171/4 128/175/4 114/157/4
f 118/163/5 127/174/5 126/172/5 117/161/5
f 117/162/33 126/173/33 125/171/33 113/156/33
f 114/157/4 116/160/4 115/159/4 113/156/4
f 129/176/36 130/179/36 132/184/36 131/182/36
f 131/182/37 132/184/37 134/188/37 133/186/37
f 133/186/38 134/188/38 136/192/38 135/190/38
f 135/190/39 136/192/39 138/196/39 137/194/39
f 137/194/40 138/196/40 140/200/40 139/198/40
f 139/198/41 140/200/41 142/204/41 141/202/41
f 141/202/42 142/204/42 144/208/42 143/206/42
f 143/206/43 144/208/43 146/212/43 145/210/43
f 145/210/44 146/212/44 148/216/44 147/214/44
f 147/214/45 148/216/45 150/220/45 149/218/45
f 149/218/46 150/220/46 152/224/46 151/222/46
f 151/222/47 152/224/47 154/228/47 153/226/47
f 153/226/48 154/228/48 156/232/48 155/230/48
f 155/230/49 156/232/49 158/236/49 157/234/49
f 157/234/50 158/236/50 160/240/50 159/238/50
f 159/238/51 160/240/51 162/244/51 161/242/51
f 161/242/52 162/244/52 164/248/52 163/246/52
f 163/246/53 164/248/53 166/252/53 165/250/53
f 165/250/54 166/252/54 168/256/54 167/254/54
f 167/254/55 168/256/55 170/260/55 169/258/55
f 169/258/56 170/260/56 172/264/56 171/262/56
f 171/262/57 172/264/57 174/268/57 173/266/57
f 173/266/58 174/268/58 176/272/58 175/270/58
f 175/270/59 176/272/59 178/276/59 177/274/59
f 177/274/60 178/276/60 180/280/60 179/278/60
f 179/278/61 180/280/61 182/284/61 181/282/61
f 181/282/62 182/284/62 184/288/62 183/286/62
f 183/286/63 184/288/63 186/292/63 185/290/63
f 185/290/64 186/292/64 188/296/64 187/294/64
f 187/294/65 188/296/65 190/301/65 189/298/65
f 132/185/4 130/180/4 192/304/4 190/300/4 188/297/4 186/293/4 184/289/4 182/285/4 180/281/4 178/277/4 176/273/4 174/269/4 172/265/4 170/261/4 168/257/4 166/253/4 164/249/4 162/245/4 160/241/4 158/237/4 156/233/4 154/229/4 152/225/4 150/221/4 148/217/4 146/213/4 144/209/4 142/205/4 140/201/4 138/197/4 136/193/4 134/189/4
f 189/298/66 190/301/66 192/305/66 191/302/66
f 191/302/67 192/305/67 130/181/67 129/177/67
f 129/178/5 131/183/5 133/187/5 135/191/5 137/195/5 139/199/5 141/203/5 143/207/5 145/211/5 147/215/5 149/219/5 151/223/5 153/227/5 155/231/5 157/235/5 159/239/5 161/243/5 163/247/5 165/251/5 167/255/5 169/259/5 171/263/5 173/267/5 175/271/5 177/275/5 179/279/5 181/283/5 183/287/5 185/291/5 187/295/5 189/299/5 191/303/5
f 70/96/4 69/95/4 71/98/4 72/99/4
f 102/141/4 104/144/4 103/143/4 101/140/4
