# Blender 3.4.1
# www.blender.org
mtllib monitor2.mtl
g Cube.014_Cube.014
v 1.529240 0.923976 1.124536
v 1.204240 1.075333 1.077503
v 1.529240 1.273976 1.124536
v 1.204240 1.175333 1.077503
v 1.517552 0.923976 1.074536
v 1.366306 1.206002 1.074536
v 1.304240 1.075333 1.077503
v 1.526529 0.925701 1.124536
v 1.304240 1.175333 1.077503
v 1.526529 1.272250 1.124536
v 1.529240 1.273976 1.126775
v 1.529240 0.923976 1.126775
v 1.526529 1.272250 1.126775
v 1.526529 0.925701 1.126775
v 1.517552 0.932709 1.074536
v 1.529240 0.932709 1.124536
v 1.526529 0.934293 1.124536
v 1.529240 0.932709 1.126775
v 1.526529 0.934293 1.126775
v 1.526529 0.934293 1.127674
v 1.526529 0.925701 1.127674
v 1.254240 1.206002 1.074536
v 1.254240 0.923976 1.124536
v 1.254240 1.273976 1.124536
v 1.254240 0.925701 1.124536
v 1.254240 1.272250 1.124536
v 1.254240 0.923976 1.126775
v 1.254240 1.273976 1.126775
v 1.254240 0.925701 1.126775
v 1.254240 1.272250 1.126775
v 1.254240 0.934293 1.124536
v 1.254240 0.925701 1.127674
v 1.254240 0.934293 1.127674
v 1.312940 1.206002 1.074536
v 1.398285 0.923976 1.124536
v 1.396865 0.925701 1.124536
v 1.398285 0.923976 1.126775
v 1.396865 0.925701 1.126775
v 1.398285 0.932709 1.074536
v 1.396865 0.925701 1.127674
v 1.398285 0.923976 1.074536
v 1.398285 1.273976 1.124536
v 1.396865 1.272250 1.124536
v 1.398285 1.273976 1.126775
v 1.396865 1.272250 1.126775
v 1.396865 0.934293 1.124536
v 1.396865 0.934293 1.127674
v 1.466211 1.038430 1.074536
v 1.529240 1.064725 1.124536
v 1.526529 1.065029 1.124536
v 1.529240 1.064725 1.126775
v 1.526529 1.065029 1.126775
v 1.254240 1.065029 1.124536
v 1.254240 1.038430 1.074536
v 1.396865 1.065029 1.124536
v 1.398187 1.038430 1.074536
v 1.254240 0.923976 1.109845
v 1.254240 0.932709 1.109845
v 1.398285 0.932709 1.109845
v 1.398285 0.923976 1.109845
v 1.254240 1.038430 1.109845
v 1.398187 1.038430 1.109845
v 1.294392 1.273976 1.124536
v 1.293996 1.272250 1.124536
v 1.294392 1.273976 1.126775
v 1.293996 1.272250 1.126775
v 1.293996 0.934293 1.124536
v 1.293996 0.934293 1.127674
v 1.270603 1.206002 1.074536
v 1.294392 0.923976 1.124536
v 1.293996 0.925701 1.124536
v 1.294392 0.923976 1.126775
v 1.293996 0.925701 1.126775
v 1.293996 0.925701 1.127674
v 1.294365 1.038430 1.074536
v 1.293996 1.065029 1.124536
v 1.294392 0.923976 1.109845
v 1.294392 0.932709 1.109845
v 1.294365 1.038430 1.109845
v 0.979240 0.923976 1.124536
v 0.979240 1.273976 1.124536
v 0.990928 0.923976 1.074536
v 1.142174 1.206002 1.074536
v 0.981951 0.925701 1.124536
v 0.981951 1.272250 1.124536
v 0.979240 1.273976 1.126775
v 0.979240 0.923976 1.126775
v 0.981951 1.272250 1.126775
v 0.981951 0.925701 1.126775
v 0.990928 0.932709 1.074536
v 0.979240 0.932709 1.124536
v 0.981951 0.934293 1.124536
v 0.979240 0.932709 1.126775
v 0.981951 0.934293 1.126775
v 0.981951 0.934293 1.127674
v 0.981951 0.925701 1.127674
v 1.195540 1.206002 1.074536
v 1.110195 0.923976 1.124536
v 1.111615 0.925701 1.124536
v 1.110195 0.923976 1.126775
v 1.111615 0.925701 1.126775
v 1.110195 0.932709 1.074536
v 1.111615 0.925701 1.127674
v 1.110195 0.923976 1.074536
v 1.110195 1.273976 1.124536
v 1.111615 1.272250 1.124536
v 1.110195 1.273976 1.126775
v 1.111615 1.272250 1.126775
v 1.111615 0.934293 1.124536
v 1.111615 0.934293 1.127674
v 1.042269 1.038430 1.074536
v 0.979240 1.064725 1.124536
v 0.981951 1.065029 1.124536
v 0.979240 1.064725 1.126775
v 0.981951 1.065029 1.126775
v 1.111615 1.065029 1.124536
v 1.110293 1.038430 1.074536
v 1.110195 0.932709 1.109845
v 1.110195 0.923976 1.109845
v 1.110293 1.038430 1.109845
v 1.214088 1.273976 1.124536
v 1.214483 1.272250 1.124536
v 1.214088 1.273976 1.126775
v 1.214483 1.272250 1.126775
v 1.214483 0.934293 1.124536
v 1.214483 0.934293 1.127674
v 1.237877 1.206002 1.074536
v 1.214088 0.923976 1.124536
v 1.214483 0.925701 1.124536
v 1.214088 0.923976 1.126775
v 1.214483 0.925701 1.126775
v 1.214483 0.925701 1.127674
v 1.214115 1.038430 1.074536
v 1.214483 1.065029 1.124536
v 1.214088 0.923976 1.109845
v 1.214088 0.932709 1.109845
v 1.214115 1.038430 1.109845
v 1.304240 1.175333 1.074536
v 1.289132 1.075333 1.074536
v 1.274952 1.175333 1.074536
v 1.304240 1.075333 1.074536
v 1.254240 1.075333 1.074536
v 1.254240 1.175333 1.074536
v 1.204240 1.075333 1.074536
v 1.204240 1.175333 1.074536
v 1.219348 1.075333 1.074536
v 1.233528 1.175333 1.074536
vn -0.0000 -1.0000 -0.0000
vn -1.0000 -0.0000 -0.0000
vn -0.0000 -0.0001 1.0000
vn -0.0000 -0.0000 1.0000
vn 1.0000 -0.0000 -0.0000
vn 0.9737 -0.0000 -0.2276
vn -0.0000 -0.0000 -1.0000
vn -0.0000 1.0000 -0.0000
vn -0.0000 0.5925 -0.8055
vn -0.0000 0.0001 1.0000
vn -1.0000 -0.0009 -0.0000
vn 0.7686 0.1660 -0.6179
vn 0.3684 0.0977 -0.9245
vn -0.9737 -0.0000 -0.2276
vn 1.0000 -0.0009 -0.0000
vn -0.7686 0.1660 -0.6179
vn -0.3684 0.0977 -0.9245
vt 0.375000 0.750000
vt 0.375000 0.000000
vt 0.375000 1.000000
vt 0.125000 0.750000
vt 0.625000 0.750000
vt 0.625000 0.000000
vt 0.625000 1.000000
vt 0.875000 0.750000
vt 0.375000 0.500000
vt 0.625000 0.500000
vt 0.375000 0.750000
vt 0.375000 0.750000
vt 0.625000 0.750000
vt 0.625000 0.750000
vt 0.625000 0.750000
vt 0.375000 0.750000
vt 0.625000 0.750000
vt 0.375000 0.750000
vt 0.385272 0.500000
vt 0.385272 0.750000
vt 0.385272 0.750000
vt 0.385272 0.750000
vt 0.385272 0.750000
vt 0.385272 0.750000
vt 0.375000 0.750000
vt 0.750000 0.500000
vt 0.625000 0.375000
vt 0.250000 0.750000
vt 0.750000 0.750000
vt 0.375000 0.875000
vt 0.625000 0.875000
vt 0.250000 0.750000
vt 0.750000 0.750000
vt 0.375000 0.875000
vt 0.250000 0.750000
vt 0.750000 0.750000
vt 0.625000 0.875000
vt 0.385272 0.875000
vt 0.375000 0.875000
vt 0.385272 0.875000
vt 0.625000 0.440475
vt 0.684525 0.500000
vt 0.315475 0.750000
vt 0.375000 0.809525
vt 0.315475 0.750000
vt 0.315475 0.750000
vt 0.375000 0.809525
vt 0.385272 0.440475
vt 0.375000 0.809525
vt 0.315475 0.500000
vt 0.375000 0.440475
vt 0.684525 0.750000
vt 0.625000 0.809525
vt 0.684525 0.750000
vt 0.625000 0.809525
vt 0.684525 0.750000
vt 0.385272 0.809525
vt 0.385272 0.809525
vt 0.478009 0.500000
vt 0.478009 0.750000
vt 0.478009 0.750000
vt 0.478009 0.750000
vt 0.478009 0.750000
vt 0.478009 0.875000
vt 0.478009 0.375000
vt 0.478009 0.809525
vt 0.478009 0.440475
vt 0.375000 0.375000
vt 0.385272 0.375000
vt 0.385272 0.440475
vt 0.375000 0.440475
vt 0.478009 0.375000
vt 0.478009 0.440475
vt 0.731749 0.750000
vt 0.625000 0.856749
vt 0.731749 0.750000
vt 0.625000 0.856749
vt 0.731749 0.750000
vt 0.385272 0.856749
vt 0.385272 0.856749
vt 0.625000 0.393251
vt 0.731749 0.500000
vt 0.268251 0.750000
vt 0.375000 0.856749
vt 0.268251 0.750000
vt 0.268251 0.750000
vt 0.375000 0.856749
vt 0.375000 0.856749
vt 0.478009 0.393251
vt 0.478009 0.856749
vt 0.375000 0.393251
vt 0.385272 0.393251
vt 0.478009 0.393251
vt 0.375000 0.750000
vt 0.625000 0.750000
vt 0.375000 0.500000
vt 0.625000 0.500000
vt 0.375000 0.750000
vt 0.625000 0.750000
vt 0.625000 0.750000
vt 0.375000 0.750000
vt 0.625000 0.750000
vt 0.375000 0.750000
vt 0.385272 0.500000
vt 0.385272 0.750000
vt 0.385272 0.750000
vt 0.385272 0.750000
vt 0.385272 0.750000
vt 0.385272 0.750000
vt 0.375000 0.750000
vt 0.625000 0.440475
vt 0.684525 0.500000
vt 0.315475 0.750000
vt 0.375000 0.809525
vt 0.315475 0.750000
vt 0.315475 0.750000
vt 0.375000 0.809525
vt 0.385272 0.440475
vt 0.375000 0.809525
vt 0.315475 0.500000
vt 0.375000 0.440475
vt 0.684525 0.750000
vt 0.625000 0.809525
vt 0.684525 0.750000
vt 0.625000 0.809525
vt 0.684525 0.750000
vt 0.385272 0.809525
vt 0.385272 0.809525
vt 0.478009 0.500000
vt 0.478009 0.750000
vt 0.478009 0.750000
vt 0.478009 0.750000
vt 0.478009 0.750000
vt 0.478009 0.809525
vt 0.478009 0.440475
vt 0.385272 0.440475
vt 0.375000 0.440475
vt 0.478009 0.440475
vt 0.731749 0.750000
vt 0.625000 0.856749
vt 0.731749 0.750000
vt 0.625000 0.856749
vt 0.731749 0.750000
vt 0.385272 0.856749
vt 0.385272 0.856749
vt 0.625000 0.393251
vt 0.731749 0.500000
vt 0.268251 0.750000
vt 0.375000 0.856749
vt 0.268251 0.750000
vt 0.268251 0.750000
vt 0.375000 0.856749
vt 0.375000 0.856749
vt 0.478009 0.393251
vt 0.478009 0.856749
vt 0.375000 0.393251
vt 0.385272 0.393251
vt 0.478009 0.393251
vt 0.598097 0.419589
vt 0.625000 0.742582
vt 0.510379 0.393251
vt 0.337230 0.742582
vt 0.598097 0.393251
vt 0.698221 0.742582
vt 0.510379 0.401547
vt 0.375000 0.742582
vt 0.510379 0.375000
vt 0.250000 0.742582
vt 0.598097 0.375000
vt 0.750000 0.742582
vt 0.510379 0.401547
vt 0.375000 0.007418
vt 0.125000 0.742582
vt 0.598098 0.419589
vt 0.625000 0.007418
vt 0.875000 0.742582
vt 0.510379 0.393251
vt 0.162770 0.742582
vt 0.598098 0.393251
vt 0.801779 0.742582
s 0
g off
g Cube.014_Material.004
usemtl Material.004
f 41/50/1 5/9/1 1/1/1 35/43/1
f 17/21/2 8/12/2 14/18/2 19/23/2
f 37/45/3 12/16/3 14/18/3 38/46/3
f 35/43/1 1/1/1 12/16/1 37/45/1
f 43/53/1 10/14/1 13/17/1 45/55/1
f 12/16/4 18/22/4 19/23/4 14/18/4
f 50/61/2 17/21/2 19/23/2 52/63/2
f 1/1/5 16/20/5 18/22/5 12/16/5
f 5/9/6 15/19/6 16/20/6 1/1/6
f 41/51/7 39/48/7 15/19/7 5/9/7
f 8/12/5 17/21/5 20/24/5 21/25/5
f 36/44/1 8/12/1 21/25/1 40/49/1
f 74/88/4 68/80/4 33/40/4 32/39/4
f 67/79/8 31/38/8 33/40/8 68/80/8
f 65/76/4 28/33/4 30/36/4 66/78/4
f 63/74/8 24/29/8 28/33/8 65/76/8
f 69/82/9 22/26/9 24/29/9 63/74/9
f 71/84/8 25/30/8 29/34/8 73/87/8
f 8/12/8 36/44/8 38/47/8 14/18/8
f 6/10/9 34/42/9 42/52/9 3/5/9
f 3/5/8 42/52/8 44/54/8 11/15/8
f 11/15/10 44/54/10 45/56/10 13/17/10
f 17/21/8 46/57/8 47/58/8 20/24/8
f 21/25/4 20/24/4 47/58/4 40/49/4
f 71/84/1 36/44/1 40/49/1 74/88/1
f 64/75/1 43/53/1 45/55/1 66/77/1
f 70/83/1 35/43/1 37/45/1 72/85/1
f 72/85/4 37/45/4 38/46/4 73/86/4
f 56/67/11 39/48/11 59/70/11 62/73/11
f 17/21/4 50/61/4 55/66/4 46/57/4
f 67/79/4 76/90/4 53/64/4 31/38/4
f 69/81/7 34/41/7 56/67/7 75/89/7 139/161/7 141/165/7 138/159/7 140/163/7
f 18/22/4 51/62/4 52/63/4 19/23/4
f 16/20/5 49/60/5 51/62/5 18/22/5
f 15/19/12 48/59/12 49/60/12 16/20/12
f 39/48/7 56/67/7 48/59/7 15/19/7
f 77/91/7 78/92/7 59/70/7 60/71/7
f 78/92/7 79/93/7 62/73/7 59/70/7
f 75/89/1 56/67/1 62/73/1 79/93/1
f 39/48/2 41/51/2 60/71/2 59/70/2
f 50/61/4 10/14/4 43/53/4 55/66/4
f 76/90/4 64/75/4 26/31/4 53/64/4
f 51/62/4 11/15/4 13/17/4 52/63/4
f 49/60/5 3/5/5 11/15/5 51/62/5
f 48/59/13 6/10/13 3/5/13 49/60/13
f 56/67/7 34/41/7 6/10/7 48/59/7
f 143/169/7 22/27/7 69/81/7 140/163/7
f 75/89/7 54/65/7 142/167/7 139/161/7
f 10/14/2 50/61/2 52/63/2 13/17/2
f 43/53/4 64/75/4 76/90/4 55/66/4
f 54/65/1 75/89/1 79/93/1 61/72/1
f 58/69/7 61/72/7 79/93/7 78/92/7
f 57/68/7 58/69/7 78/92/7 77/91/7
f 46/57/4 55/66/4 76/90/4 67/79/4
f 27/32/4 72/85/4 73/86/4 29/35/4
f 23/28/1 70/83/1 72/85/1 27/32/1
f 26/31/1 64/75/1 66/77/1 30/37/1
f 25/30/1 71/84/1 74/88/1 32/39/1
f 36/44/8 71/84/8 73/87/8 38/47/8
f 34/42/9 69/82/9 63/74/9 42/52/9
f 42/52/8 63/74/8 65/76/8 44/54/8
f 44/54/4 65/76/4 66/78/4 45/56/4
f 46/57/8 67/79/8 68/80/8 47/58/8
f 40/49/4 47/58/4 68/80/4 74/88/4
f 104/120/1 98/113/1 80/94/1 82/96/1
f 92/106/5 94/108/5 89/103/5 84/98/5
f 100/115/3 101/116/3 89/103/3 87/101/3
f 98/113/1 100/115/1 87/101/1 80/94/1
f 106/123/1 108/125/1 88/102/1 85/99/1
f 87/101/4 89/103/4 94/108/4 93/107/4
f 113/131/5 115/133/5 94/108/5 92/106/5
f 80/94/2 87/101/2 93/107/2 91/105/2
f 82/96/14 80/94/14 91/105/14 90/104/14
f 104/121/7 82/96/7 90/104/7 102/118/7
f 84/98/2 96/110/2 95/109/2 92/106/2
f 99/114/1 103/119/1 96/110/1 84/98/1
f 132/153/4 32/39/4 33/40/4 126/145/4
f 125/144/8 126/145/8 33/40/8 31/38/8
f 123/141/4 124/143/4 30/36/4 28/33/4
f 121/139/8 123/141/8 28/33/8 24/29/8
f 127/147/9 121/139/9 24/29/9 22/26/9
f 129/149/8 131/152/8 29/34/8 25/30/8
f 84/98/8 89/103/8 101/117/8 99/114/8
f 83/97/9 81/95/9 105/122/9 97/112/9
f 81/95/8 86/100/8 107/124/8 105/122/8
f 86/100/10 88/102/10 108/126/10 107/124/10
f 92/106/8 95/109/8 110/128/8 109/127/8
f 96/110/4 103/119/4 110/128/4 95/109/4
f 129/149/1 132/153/1 103/119/1 99/114/1
f 122/140/1 124/142/1 108/125/1 106/123/1
f 128/148/1 130/150/1 100/115/1 98/113/1
f 130/150/4 131/151/4 101/116/4 100/115/4
f 117/135/15 120/138/15 118/136/15 102/118/15
f 92/106/4 109/127/4 116/134/4 113/131/4
f 125/144/4 31/38/4 53/64/4 134/155/4
f 146/177/7 133/154/7 117/135/7 97/111/7 127/146/7 147/179/7 145/174/7 144/171/7
f 93/107/4 94/108/4 115/133/4 114/132/4
f 91/105/2 93/107/2 114/132/2 112/130/2
f 90/104/16 91/105/16 112/130/16 111/129/16
f 102/118/7 90/104/7 111/129/7 117/135/7
f 135/156/7 119/137/7 118/136/7 136/157/7
f 136/157/7 118/136/7 120/138/7 137/158/7
f 133/154/1 137/158/1 120/138/1 117/135/1
f 102/118/5 118/136/5 119/137/5 104/121/5
f 113/131/4 116/134/4 106/123/4 85/99/4
f 134/155/4 53/64/4 26/31/4 122/140/4
f 114/132/4 115/133/4 88/102/4 86/100/4
f 112/130/2 114/132/2 86/100/2 81/95/2
f 111/129/17 112/130/17 81/95/17 83/97/17
f 117/135/7 111/129/7 83/97/7 97/111/7
f 127/146/7 22/27/7 143/169/7 147/179/7
f 54/65/7 133/154/7 146/177/7 142/167/7
f 85/99/5 88/102/5 115/133/5 113/131/5
f 106/123/4 116/134/4 134/155/4 122/140/4
f 54/65/1 61/72/1 137/158/1 133/154/1
f 58/69/7 136/157/7 137/158/7 61/72/7
f 57/68/7 135/156/7 136/157/7 58/69/7
f 109/127/4 125/144/4 134/155/4 116/134/4
f 27/32/4 29/35/4 131/151/4 130/150/4
f 23/28/1 27/32/1 130/150/1 128/148/1
f 26/31/1 30/37/1 124/142/1 122/140/1
f 25/30/1 32/39/1 132/153/1 129/149/1
f 99/114/8 101/117/8 131/152/8 129/149/8
f 97/112/9 105/122/9 121/139/9 127/147/9
f 105/122/8 107/124/8 123/141/8 121/139/8
f 107/124/4 108/126/4 124/143/4 123/141/4
f 109/127/8 110/128/8 126/145/8 125/144/8
f 103/119/4 132/153/4 126/145/4 110/128/4
f 145/175/5 4/6/5 2/2/5 144/172/5
f 141/166/2 7/11/2 9/13/2 138/160/2
f 7/11/7 2/3/7 4/7/7 9/13/7
f 144/173/8 2/4/8 7/11/8 141/166/8 139/162/8 142/168/8 146/178/8
f 9/13/1 4/8/1 145/176/1 147/180/1 143/170/1 140/164/1 138/160/1
f 23/28/1 128/148/1 98/113/1 119/137/1 135/156/1 57/68/1 77/91/1 60/71/1 35/43/1 70/83/1
