# Blender 3.4.1
# www.blender.org
mtllib monitor3.mtl
g Cube.015_Cube.015
v 2.009223 0.923976 1.400706
v 1.751281 1.075333 1.197475
v 2.009223 1.273976 1.400706
v 1.751281 1.175333 1.197475
v 2.024101 0.923976 1.351561
v 1.893118 1.206002 1.275938
v 1.837883 1.075333 1.247475
v 2.006875 0.925701 1.399351
v 1.837883 1.175333 1.247475
v 2.006875 1.272250 1.399351
v 2.008102 1.273976 1.402646
v 2.008102 0.923976 1.402646
v 2.005754 1.272250 1.401290
v 2.005754 0.925701 1.401290
v 2.024101 0.932709 1.351561
v 2.009223 0.932709 1.400706
v 2.006875 0.934293 1.399351
v 2.008102 0.932709 1.402646
v 2.005754 0.934293 1.401290
v 2.005305 0.934293 1.402069
v 2.005305 0.925701 1.402069
v 1.796066 1.206002 1.219905
v 1.771065 0.923976 1.263206
v 1.771065 1.273976 1.263206
v 1.771065 0.925701 1.263206
v 1.771065 1.272250 1.263206
v 1.769947 0.923976 1.265146
v 1.769947 1.273976 1.265146
v 1.769947 0.925701 1.265146
v 1.769947 1.272250 1.265146
v 1.771065 0.934293 1.263206
v 1.769497 0.925701 1.265925
v 1.769497 0.934293 1.265925
v 1.846902 1.206002 1.249255
v 1.895813 0.923976 1.335229
v 1.894583 0.925701 1.334519
v 1.894693 0.923976 1.337168
v 1.893463 0.925701 1.336458
v 1.920813 0.932709 1.291928
v 1.893013 0.925701 1.337237
v 1.920813 0.923976 1.291928
v 1.895813 1.273976 1.335229
v 1.894583 1.272250 1.334519
v 1.894693 1.273976 1.337168
v 1.893463 1.272250 1.336458
v 1.894583 0.934293 1.334519
v 1.893013 0.934293 1.337237
v 1.979638 1.038430 1.325890
v 2.009223 1.064725 1.400706
v 2.006875 1.065029 1.399351
v 2.008102 1.064725 1.402646
v 2.005754 1.065029 1.401290
v 1.771065 1.065029 1.263206
v 1.796066 1.038430 1.219905
v 1.894583 1.065029 1.334519
v 1.920727 1.038430 1.291879
v 1.778412 0.923976 1.250483
v 1.778412 0.932709 1.250483
v 1.903157 0.932709 1.322506
v 1.903157 0.923976 1.322506
v 1.778412 1.038430 1.250483
v 1.903074 1.038430 1.322457
v 1.805839 1.273976 1.283282
v 1.805496 1.272250 1.283084
v 1.804718 1.273976 1.285222
v 1.804376 1.272250 1.285024
v 1.805496 0.934293 1.283084
v 1.803927 0.934293 1.285803
v 1.810237 1.206002 1.228086
v 1.805839 0.923976 1.283282
v 1.805496 0.925701 1.283084
v 1.804718 0.923976 1.285222
v 1.804376 0.925701 1.285024
v 1.803927 0.925701 1.285803
v 1.830815 1.038430 1.239968
v 1.805496 1.065029 1.283084
v 1.813184 0.923976 1.270560
v 1.813184 0.932709 1.270560
v 1.813161 1.038430 1.270546
v 1.532909 0.923976 1.125706
v 1.532909 1.273976 1.125706
v 1.568031 0.923976 1.088249
v 1.699014 1.206002 1.163872
v 1.535257 0.925701 1.127062
v 1.535257 1.272250 1.127062
v 1.531790 1.273976 1.127646
v 1.531790 0.923976 1.127646
v 1.534137 1.272250 1.129001
v 1.534137 0.925701 1.129001
v 1.568031 0.932709 1.088249
v 1.532909 0.932709 1.125706
v 1.535257 0.934293 1.127062
v 1.531790 0.932709 1.127646
v 1.534137 0.934293 1.129001
v 1.533688 0.934293 1.129780
v 1.533688 0.925701 1.129780
v 1.745230 1.206002 1.190555
v 1.646320 0.923976 1.191184
v 1.647550 0.925701 1.191894
v 1.645200 0.923976 1.193123
v 1.646430 0.925701 1.193833
v 1.671319 0.932709 1.147883
v 1.645980 0.925701 1.194612
v 1.671319 0.923976 1.147883
v 1.646320 1.273976 1.191184
v 1.647550 1.272250 1.191894
v 1.645200 1.273976 1.193123
v 1.646430 1.272250 1.193833
v 1.647550 0.934293 1.191894
v 1.645980 0.934293 1.194612
v 1.612494 1.038430 1.113920
v 1.532909 1.064725 1.125706
v 1.535257 1.065029 1.127062
v 1.531790 1.064725 1.127646
v 1.534137 1.065029 1.129001
v 1.647550 1.065029 1.191894
v 1.671404 1.038430 1.147931
v 1.653665 0.932709 1.178461
v 1.653665 0.923976 1.178461
v 1.653750 1.038430 1.178510
v 1.736293 1.273976 1.243130
v 1.736636 1.272250 1.243328
v 1.735174 1.273976 1.245070
v 1.735517 1.272250 1.245268
v 1.736636 0.934293 1.243328
v 1.735067 0.934293 1.246047
v 1.781896 1.206002 1.211724
v 1.736293 0.923976 1.243130
v 1.736636 0.925701 1.243328
v 1.735174 0.923976 1.245070
v 1.735517 0.925701 1.245268
v 1.735067 0.925701 1.246047
v 1.761317 1.038430 1.199843
v 1.736636 1.065029 1.243328
v 1.743639 0.923976 1.230407
v 1.743639 0.932709 1.230407
v 1.743663 1.038430 1.230421
v 1.839367 1.175333 1.244905
v 1.826283 1.075333 1.237351
v 1.814003 1.175333 1.230261
v 1.839367 1.075333 1.244905
v 1.796066 1.075333 1.219905
v 1.796066 1.175333 1.219905
v 1.752765 1.075333 1.194905
v 1.752765 1.175333 1.194905
v 1.765849 1.075333 1.202459
v 1.778129 1.175333 1.209549
vn -0.0000 -1.0000 -0.0000
vn -0.8659 -0.0000 -0.5002
vn -0.5000 0.0001 0.8660
vn -0.5001 -0.0000 0.8660
vn 0.8660 -0.0000 0.5000
vn 0.9571 -0.0000 0.2897
vn 0.5000 -0.0000 -0.8660
vn 0.8659 -0.0000 0.5002
vn -0.5000 -0.0000 0.8660
vn -0.0000 1.0000 -0.0000
vn 0.4028 0.5925 -0.6976
vn -0.5000 -0.0001 0.8660
vn -0.8660 -0.0009 -0.5000
vn 0.9745 0.1660 -0.1508
vn -0.8660 -0.0000 -0.5000
vn -0.5001 -0.0000 0.8659
vn 0.7813 0.0977 -0.6165
vn -0.5000 0.0002 0.8660
vn -0.4998 -0.0000 0.8661
vn 0.8661 -0.0000 0.4999
vn -0.8662 -0.0000 -0.4996
vn -0.7295 -0.0000 -0.6840
vn 0.8660 -0.0009 0.5000
vn -0.4999 -0.0000 0.8661
vn -0.8661 -0.0000 -0.4999
vn -0.3566 0.1660 -0.9194
vn 0.1432 0.0977 -0.9849
vn -0.8661 -0.0000 -0.4998
vt 0.375000 0.750000
vt 0.375000 0.000000
vt 0.375000 1.000000
vt 0.125000 0.750000
vt 0.625000 0.750000
vt 0.625000 0.000000
vt 0.625000 1.000000
vt 0.875000 0.750000
vt 0.375000 0.500000
vt 0.625000 0.500000
vt 0.375000 0.750000
vt 0.375000 0.750000
vt 0.625000 0.750000
vt 0.625000 0.750000
vt 0.625000 0.750000
vt 0.375000 0.750000
vt 0.625000 0.750000
vt 0.375000 0.750000
vt 0.385272 0.500000
vt 0.385272 0.750000
vt 0.385272 0.750000
vt 0.385272 0.750000
vt 0.385272 0.750000
vt 0.385272 0.750000
vt 0.375000 0.750000
vt 0.750000 0.500000
vt 0.625000 0.375000
vt 0.250000 0.750000
vt 0.750000 0.750000
vt 0.375000 0.875000
vt 0.625000 0.875000
vt 0.250000 0.750000
vt 0.750000 0.750000
vt 0.375000 0.875000
vt 0.250000 0.750000
vt 0.750000 0.750000
vt 0.625000 0.875000
vt 0.385272 0.875000
vt 0.375000 0.875000
vt 0.385272 0.875000
vt 0.625000 0.440475
vt 0.684525 0.500000
vt 0.315475 0.750000
vt 0.375000 0.809525
vt 0.315475 0.750000
vt 0.315475 0.750000
vt 0.375000 0.809525
vt 0.385272 0.440475
vt 0.375000 0.809525
vt 0.315475 0.500000
vt 0.375000 0.440475
vt 0.684525 0.750000
vt 0.625000 0.809525
vt 0.684525 0.750000
vt 0.625000 0.809525
vt 0.684525 0.750000
vt 0.385272 0.809525
vt 0.385272 0.809525
vt 0.478009 0.500000
vt 0.478009 0.750000
vt 0.478009 0.750000
vt 0.478009 0.750000
vt 0.478009 0.750000
vt 0.478009 0.875000
vt 0.478009 0.375000
vt 0.478009 0.809525
vt 0.478009 0.440475
vt 0.375000 0.375000
vt 0.385272 0.375000
vt 0.385272 0.440475
vt 0.375000 0.440475
vt 0.478009 0.375000
vt 0.478009 0.440475
vt 0.731749 0.750000
vt 0.625000 0.856749
vt 0.731749 0.750000
vt 0.625000 0.856749
vt 0.731749 0.750000
vt 0.385272 0.856749
vt 0.385272 0.856749
vt 0.625000 0.393251
vt 0.731749 0.500000
vt 0.268251 0.750000
vt 0.375000 0.856749
vt 0.268251 0.750000
vt 0.268251 0.750000
vt 0.375000 0.856749
vt 0.375000 0.856749
vt 0.478009 0.393251
vt 0.478009 0.856749
vt 0.375000 0.393251
vt 0.385272 0.393251
vt 0.478009 0.393251
vt 0.375000 0.750000
vt 0.625000 0.750000
vt 0.375000 0.500000
vt 0.625000 0.500000
vt 0.375000 0.750000
vt 0.625000 0.750000
vt 0.625000 0.750000
vt 0.375000 0.750000
vt 0.625000 0.750000
vt 0.375000 0.750000
vt 0.385272 0.500000
vt 0.385272 0.750000
vt 0.385272 0.750000
vt 0.385272 0.750000
vt 0.385272 0.750000
vt 0.385272 0.750000
vt 0.375000 0.750000
vt 0.625000 0.440475
vt 0.684525 0.500000
vt 0.315475 0.750000
vt 0.375000 0.809525
vt 0.315475 0.750000
vt 0.315475 0.750000
vt 0.375000 0.809525
vt 0.385272 0.440475
vt 0.375000 0.809525
vt 0.315475 0.500000
vt 0.375000 0.440475
vt 0.684525 0.750000
vt 0.625000 0.809525
vt 0.684525 0.750000
vt 0.625000 0.809525
vt 0.684525 0.750000
vt 0.385272 0.809525
vt 0.385272 0.809525
vt 0.478009 0.500000
vt 0.478009 0.750000
vt 0.478009 0.750000
vt 0.478009 0.750000
vt 0.478009 0.750000
vt 0.478009 0.809525
vt 0.478009 0.440475
vt 0.385272 0.440475
vt 0.375000 0.440475
vt 0.478009 0.440475
vt 0.731749 0.750000
vt 0.625000 0.856749
vt 0.731749 0.750000
vt 0.625000 0.856749
vt 0.731749 0.750000
vt 0.385272 0.856749
vt 0.385272 0.856749
vt 0.625000 0.393251
vt 0.731749 0.500000
vt 0.268251 0.750000
vt 0.375000 0.856749
vt 0.268251 0.750000
vt 0.268251 0.750000
vt 0.375000 0.856749
vt 0.375000 0.856749
vt 0.478009 0.393251
vt 0.478009 0.856749
vt 0.375000 0.393251
vt 0.385272 0.393251
vt 0.478009 0.393251
vt 0.598097 0.419589
vt 0.625000 0.742582
vt 0.510379 0.393251
vt 0.337230 0.742582
vt 0.598097 0.393251
vt 0.698221 0.742582
vt 0.510379 0.401547
vt 0.375000 0.742582
vt 0.510379 0.375000
vt 0.250000 0.742582
vt 0.598097 0.375000
vt 0.750000 0.742582
vt 0.510379 0.401547
vt 0.375000 0.007418
vt 0.125000 0.742582
vt 0.598098 0.419589
vt 0.625000 0.007418
vt 0.875000 0.742582
vt 0.510379 0.393251
vt 0.162770 0.742582
vt 0.598098 0.393251
vt 0.801779 0.742582
s 0
g off
g Cube.015_Material.004
usemtl Material.004
f 41/50/1 5/9/1 1/1/1 35/43/1
f 17/21/2 8/12/2 14/18/2 19/23/2
f 37/45/3 12/16/3 14/18/3 38/46/3
f 35/43/1 1/1/1 12/16/1 37/45/1
f 43/53/1 10/14/1 13/17/1 45/55/1
f 12/16/4 18/22/4 19/23/4 14/18/4
f 50/61/2 17/21/2 19/23/2 52/63/2
f 1/1/5 16/20/5 18/22/5 12/16/5
f 5/9/6 15/19/6 16/20/6 1/1/6
f 41/51/7 39/48/7 15/19/7 5/9/7
f 8/12/8 17/21/8 20/24/8 21/25/8
f 36/44/1 8/12/1 21/25/1 40/49/1
f 74/88/9 68/80/9 33/40/9 32/39/9
f 67/79/10 31/38/10 33/40/10 68/80/10
f 65/76/9 28/33/9 30/36/9 66/78/9
f 63/74/10 24/29/10 28/33/10 65/76/10
f 69/82/11 22/26/11 24/29/11 63/74/11
f 71/84/10 25/30/10 29/34/10 73/87/10
f 8/12/10 36/44/10 38/47/10 14/18/10
f 6/10/11 34/42/11 42/52/11 3/5/11
f 3/5/10 42/52/10 44/54/10 11/15/10
f 11/15/12 44/54/12 45/56/12 13/17/12
f 17/21/10 46/57/10 47/58/10 20/24/10
f 21/25/9 20/24/9 47/58/9 40/49/9
f 71/84/1 36/44/1 40/49/1 74/88/1
f 64/75/1 43/53/1 45/55/1 66/77/1
f 70/83/1 35/43/1 37/45/1 72/85/1
f 72/85/9 37/45/9 38/46/9 73/86/9
f 56/67/13 39/48/13 59/70/13 62/73/13
f 17/21/9 50/61/9 55/66/9 46/57/9
f 67/79/9 76/90/9 53/64/9 31/38/9
f 69/81/7 34/41/7 56/67/7 75/89/7 139/161/7 141/165/7 138/159/7 140/163/7
f 18/22/4 51/62/4 52/63/4 19/23/4
f 16/20/5 49/60/5 51/62/5 18/22/5
f 15/19/14 48/59/14 49/60/14 16/20/14
f 39/48/7 56/67/7 48/59/7 15/19/7
f 77/91/7 78/92/7 59/70/7 60/71/7
f 78/92/7 79/93/7 62/73/7 59/70/7
f 75/89/1 56/67/1 62/73/1 79/93/1
f 39/48/15 41/51/15 60/71/15 59/70/15
f 50/61/9 10/14/9 43/53/9 55/66/9
f 76/90/9 64/75/9 26/31/9 53/64/9
f 51/62/16 11/15/16 13/17/16 52/63/16
f 49/60/5 3/5/5 11/15/5 51/62/5
f 48/59/17 6/10/17 3/5/17 49/60/17
f 56/67/7 34/41/7 6/10/7 48/59/7
f 143/169/7 22/27/7 69/81/7 140/163/7
f 75/89/7 54/65/7 142/167/7 139/161/7
f 10/14/2 50/61/2 52/63/2 13/17/2
f 43/53/9 64/75/9 76/90/9 55/66/9
f 54/65/1 75/89/1 79/93/1 61/72/1
f 58/69/7 61/72/7 79/93/7 78/92/7
f 57/68/7 58/69/7 78/92/7 77/91/7
f 46/57/9 55/66/9 76/90/9 67/79/9
f 27/32/3 72/85/3 73/86/3 29/35/3
f 23/28/1 70/83/1 72/85/1 27/32/1
f 26/31/1 64/75/1 66/77/1 30/37/1
f 25/30/1 71/84/1 74/88/1 32/39/1
f 36/44/10 71/84/10 73/87/10 38/47/10
f 34/42/11 69/82/11 63/74/11 42/52/11
f 42/52/10 63/74/10 65/76/10 44/54/10
f 44/54/3 65/76/3 66/78/3 45/56/3
f 46/57/10 67/79/10 68/80/10 47/58/10
f 40/49/9 47/58/9 68/80/9 74/88/9
f 104/120/1 98/113/1 80/94/1 82/96/1
f 92/106/8 94/108/8 89/103/8 84/98/8
f 100/115/18 101/116/18 89/103/18 87/101/18
f 98/113/1 100/115/1 87/101/1 80/94/1
f 106/123/1 108/125/1 88/102/1 85/99/1
f 87/101/19 89/103/19 94/108/19 93/107/19
f 113/131/20 115/133/20 94/108/20 92/106/20
f 80/94/21 87/101/21 93/107/21 91/105/21
f 82/96/22 80/94/22 91/105/22 90/104/22
f 104/121/7 82/96/7 90/104/7 102/118/7
f 84/98/15 96/110/15 95/109/15 92/106/15
f 99/114/1 103/119/1 96/110/1 84/98/1
f 132/153/9 32/39/9 33/40/9 126/145/9
f 125/144/10 126/145/10 33/40/10 31/38/10
f 123/141/12 124/143/12 30/36/12 28/33/12
f 121/139/10 123/141/10 28/33/10 24/29/10
f 127/147/11 121/139/11 24/29/11 22/26/11
f 129/149/10 131/152/10 29/34/10 25/30/10
f 84/98/10 89/103/10 101/117/10 99/114/10
f 83/97/11 81/95/11 105/122/11 97/112/11
f 81/95/10 86/100/10 107/124/10 105/122/10
f 86/100/18 88/102/18 108/126/18 107/124/18
f 92/106/10 95/109/10 110/128/10 109/127/10
f 96/110/9 103/119/9 110/128/9 95/109/9
f 129/149/1 132/153/1 103/119/1 99/114/1
f 122/140/1 124/142/1 108/125/1 106/123/1
f 128/148/1 130/150/1 100/115/1 98/113/1
f 130/150/3 131/151/3 101/116/3 100/115/3
f 117/135/23 120/138/23 118/136/23 102/118/23
f 92/106/9 109/127/9 116/134/9 113/131/9
f 125/144/9 31/38/9 53/64/9 134/155/9
f 146/177/7 133/154/7 117/135/7 97/111/7 127/146/7 147/179/7 145/174/7 144/171/7
f 93/107/24 94/108/24 115/133/24 114/132/24
f 91/105/25 93/107/25 114/132/25 112/130/25
f 90/104/26 91/105/26 112/130/26 111/129/26
f 102/118/7 90/104/7 111/129/7 117/135/7
f 135/156/7 119/137/7 118/136/7 136/157/7
f 136/157/7 118/136/7 120/138/7 137/158/7
f 133/154/1 137/158/1 120/138/1 117/135/1
f 102/118/5 118/136/5 119/137/5 104/121/5
f 113/131/9 116/134/9 106/123/9 85/99/9
f 134/155/9 53/64/9 26/31/9 122/140/9
f 114/132/19 115/133/19 88/102/19 86/100/19
f 112/130/25 114/132/25 86/100/25 81/95/25
f 111/129/27 112/130/27 81/95/27 83/97/27
f 117/135/7 111/129/7 83/97/7 97/111/7
f 127/146/7 22/27/7 143/169/7 147/179/7
f 54/65/7 133/154/7 146/177/7 142/167/7
f 85/99/20 88/102/20 115/133/20 113/131/20
f 106/123/9 116/134/9 134/155/9 122/140/9
f 54/65/1 61/72/1 137/158/1 133/154/1
f 58/69/7 136/157/7 137/158/7 61/72/7
f 57/68/7 135/156/7 136/157/7 58/69/7
f 109/127/9 125/144/9 134/155/9 116/134/9
f 27/32/9 29/35/9 131/151/9 130/150/9
f 23/28/1 27/32/1 130/150/1 128/148/1
f 26/31/1 30/37/1 124/142/1 122/140/1
f 25/30/1 32/39/1 132/153/1 129/149/1
f 99/114/10 101/117/10 131/152/10 129/149/10
f 97/112/11 105/122/11 121/139/11 127/147/11
f 105/122/10 107/124/10 123/141/10 121/139/10
f 107/124/12 108/126/12 124/143/12 123/141/12
f 109/127/10 110/128/10 126/145/10 125/144/10
f 103/119/9 132/153/9 126/145/9 110/128/9
f 145/175/5 4/6/5 2/2/5 144/172/5
f 141/166/28 7/11/28 9/13/28 138/160/28
f 7/11/7 2/3/7 4/7/7 9/13/7
f 144/173/10 2/4/10 7/11/10 141/166/10 139/162/10 142/168/10 146/178/10
f 9/13/1 4/8/1 145/176/1 147/180/1 143/170/1 140/164/1 138/160/1
f 23/28/1 128/148/1 98/113/1 119/137/1 135/156/1 57/68/1 77/91/1 60/71/1 35/43/1 70/83/1
