# Blender 3.4.1
# www.blender.org
mtllib walls.mtl
g Cube.030_Cube.030
v -2.500000 0.000000 4.000000
v -2.500000 3.389757 4.000000
v -2.500000 0.000000 -4.000000
v -2.500000 3.389757 -4.000000
v 2.500000 0.000000 4.000000
v 2.500000 3.389757 4.000000
v 2.500000 0.000000 -4.000000
v 2.500000 3.389757 -4.000000
v -2.350335 3.389757 3.760537
v -2.350335 3.389757 -3.760537
v 2.350335 3.389757 3.760537
v 2.350335 3.389757 -3.760537
v -2.350335 0.000000 3.760537
v -2.350335 0.000000 -3.760537
v 2.350335 0.000000 3.760537
v 2.350335 0.000000 -3.760537
v 2.500000 2.400117 -0.329682
v 2.500000 1.000115 -1.876342
v 2.500000 2.400117 -1.876342
v 2.500000 1.000115 -0.329682
v 2.350335 2.400117 -0.329682
v 2.350335 1.000115 -1.876342
v 2.350335 2.400117 -1.876342
v 2.350335 1.000115 -0.329682
v -2.500000 2.009999 1.027424
v -2.500000 2.009999 1.927425
v -2.500000 0.010000 1.927425
v -2.500000 0.010000 1.027424
v -2.350335 2.009999 1.927425
v -2.350335 2.009999 1.027424
v -2.350335 0.010000 1.927425
v -2.350335 0.010000 1.027424
v -2.500000 3.498216 4.000000
v -2.500000 3.498216 -4.000000
v 2.500000 3.498216 4.000000
v 2.500000 3.498216 -4.000000
v -2.350335 3.498216 3.760537
v -2.350335 3.498216 -3.760537
v 2.350335 3.498216 3.760537
v 2.350335 3.498216 -3.760537
vn -1.0000 -0.0000 -0.0000
vn -0.0000 -0.0000 -1.0000
vn 1.0000 -0.0000 -0.0000
vn -0.0000 -0.0000 1.0000
vn -0.0000 1.0000 -0.0000
vn -0.0000 -1.0000 -0.0000
vt 0.333333 0.666667
vt 0.333333 0.333333
vt 0.000000 0.666667
vt 0.333333 0.666667
vt 0.333333 0.333333
vt 1.000000 0.000000
vt 0.000000 0.333333
vt 1.000000 0.333333
vt 0.666667 0.000000
vt 0.666667 0.333333
vt 0.666667 0.666667
vt 0.333333 0.000000
vt 0.666667 0.000000
vt 0.666667 0.333333
vt 0.666667 0.333333
vt 0.333333 0.333333
vt 0.626756 1.000000
vt 0.666667 0.666667
vt 0.000000 0.000000
vt 0.626756 1.000000
vt 0.980045 0.666667
vt 0.000000 0.000000
vt 0.313378 1.000000
vt 0.000000 0.000000
vt 0.940134 1.000000
vt 0.000000 1.000000
vt 0.000000 0.000000
vt 0.666667 0.333333
vt 0.626756 0.666667
vt 0.980045 0.333333
vt 0.626756 0.666667
vt 0.313378 0.666667
vt 0.000000 0.666667
vt 0.940134 0.666667
vt 0.437429 0.180403
vt 0.960089 0.800382
vt 0.960089 0.922133
vt 0.571145 0.244848
vt 0.970067 0.800382
vt 0.940134 0.857689
vt 0.437429 0.244848
vt 0.970067 0.934098
vt 0.960089 0.857689
vt 0.571145 0.180403
vt 0.960089 0.666667
vt 0.940134 0.922133
vt 0.142952 0.895904
vt 0.970067 0.800382
vt 0.950112 0.922133
vt 0.078508 0.762189
vt 0.960089 0.800382
vt 0.950112 0.857689
vt 0.078508 0.895904
vt 0.960089 0.934098
vt 0.950112 0.857689
vt 0.142952 0.762189
vt 0.970067 0.666667
vt 0.950112 0.922133
vt 0.141356 0.542809
vt 0.950112 0.857689
vt 0.950112 0.922133
vt 0.141356 0.580309
vt 0.950112 0.857689
vt 0.950112 0.959633
vt 0.332378 0.580309
vt 0.950112 0.666667
vt 0.950112 0.959633
vt 0.332378 0.542809
vt 0.950112 0.666667
vt 0.950112 0.922133
vt 0.743046 0.525310
vt 0.940134 0.857689
vt 0.960089 0.959633
vt 0.780546 0.525310
vt 0.960089 0.857689
vt 0.960089 0.922133
vt 0.743046 0.334288
vt 0.940134 0.666667
vt 0.940134 0.959633
vt 0.780546 0.334288
vt 0.960089 0.666667
vt 0.940134 0.922133
vt 0.000000 0.666667
vt 0.333333 0.666667
vt 0.333333 0.333333
vt 0.000000 0.333333
vt 1.000000 0.333333
vt 0.333333 0.000000
vt 0.666667 0.666667
vt 0.000000 0.333333
vt 0.333333 0.000000
vt 0.666667 0.333333
vt 0.000000 0.000000
vt 0.333333 0.333333
vt 0.323356 0.323356
vt 0.626756 1.000000
vt 0.666667 0.666667
vt 0.000000 0.000000
vt 0.626756 1.000000
vt 0.323356 0.009978
vt 0.980045 0.666667
vt 0.000000 0.000000
vt 0.009978 0.323356
vt 0.313378 1.000000
vt 0.000000 0.000000
vt 0.940134 1.000000
vt 0.009978 0.009978
vt 0.000000 1.000000
vt 0.000000 0.000000
s 0
g off
g Cube.030_Material.018
usemtl Material.018
f 1/1/1 2/3/1 26/62/1 27/65/1
f 26/62/1 2/3/1 4/7/1 3/5/1 1/1/1 27/65/1 28/68/1 25/59/1
f 3/6/2 4/8/2 8/15/2 7/13/2
f 18/38/3 7/14/3 8/16/3 19/41/3
f 17/35/3 19/41/3 8/16/3 6/12/3 5/9/3 7/14/3 18/38/3 20/44/3
f 5/10/4 6/11/4 2/4/4 1/2/4
f 4/7/1 2/3/1 33/83/1 34/86/1
f 12/26/1 16/33/1 22/50/1 23/53/1
f 24/56/1 22/50/1 16/33/1 15/32/1 11/23/1 12/26/1 23/53/1 21/47/1
f 8/15/2 4/8/2 34/87/2 36/92/2
f 2/4/4 6/11/4 35/89/4 33/84/4
f 10/20/2 38/99/2 40/106/2 12/25/2
f 9/18/3 13/28/3 31/77/3 29/71/3
f 31/77/3 13/28/3 14/30/3 10/21/3 9/18/3 29/71/3 30/74/3 32/80/3
f 9/17/2 11/23/2 15/32/2 13/29/2
f 12/25/4 10/20/4 14/31/4 16/34/4
f 36/93/5 34/88/5 38/100/5 40/107/5
f 35/90/5 36/93/5 40/107/5 39/103/5
f 34/88/5 33/85/5 37/95/5 38/100/5
f 33/85/5 35/90/5 39/103/5 37/95/5
f 11/23/4 39/104/4 37/96/4 9/17/4
f 9/18/1 37/97/1 38/101/1 10/21/1
f 6/12/3 8/16/3 36/94/3 35/91/3
f 12/26/3 40/108/3 39/104/3 11/23/3
f 10/22/6 12/27/6 11/24/6 9/19/6
f 37/98/5 39/105/5 40/109/5 38/102/5
g Cube.030_
usemtl 
f 22/51/4 18/39/4 19/42/4 23/54/4
f 21/48/2 17/36/2 20/45/2 24/57/2
f 20/46/5 18/40/5 22/52/5 24/58/5
f 23/55/6 19/43/6 17/37/6 21/49/6
f 30/75/4 25/60/4 28/69/4 32/81/4
f 31/78/2 27/66/2 26/63/2 29/72/2
f 28/70/5 27/67/5 31/79/5 32/82/5
f 25/61/6 30/76/6 29/73/6 26/64/6
